<?xml version="1.0" encoding="UTF-8"?>
<!DOCTYPE svg PUBLIC "-//W3C//DTD SVG 1.1//EN" "http://www.w3.org/Graphics/SVG/1.1/DTD/svg11.dtd">
<svg xmlns="http://www.w3.org/2000/svg" version="1.1" width="568px" height="568px" style="shape-rendering:geometricPrecision; text-rendering:geometricPrecision; image-rendering:optimizeQuality; fill-rule:evenodd; clip-rule:evenodd" xmlns:xlink="http://www.w3.org/1999/xlink">
<g><path style="opacity:1" fill="#d62b2b" d="M -0.5,-0.5 C 18.5,-0.5 37.5,-0.5 56.5,-0.5C 62.1305,5.63143 67.9638,11.6314 74,17.5C 75.8241,16.2513 75.6574,15.0847 73.5,14C 83.3303,12.0274 84.997,7.19409 78.5,-0.5C 104.5,-0.5 130.5,-0.5 156.5,-0.5C 149.896,-0.394457 147.062,2.93888 148,9.5C 150.849,16.0469 155.682,18.5469 162.5,17C 164.886,15.1127 166.053,12.6127 166,9.5C 171.393,16.0666 169.893,20.3999 161.5,22.5C 169.136,23.695 172.302,20.3617 171,12.5C 167.33,7.99834 163.497,3.66501 159.5,-0.5C 189.833,-0.5 220.167,-0.5 250.5,-0.5C 250.5,0.166667 250.5,0.833333 250.5,1.5C 246.364,2.98261 244.03,5.98261 243.5,10.5C 238.609,10.5319 233.943,11.1985 229.5,12.5C 225.077,14.8104 220.411,16.6438 215.5,18C 213.382,19.0491 211.716,20.5491 210.5,22.5C 208.847,24.9608 206.847,27.1275 204.5,29C 195.089,32.0838 185.756,35.4171 176.5,39C 167.132,39.1316 157.798,38.7983 148.5,38C 143.725,41.6551 142.225,46.4884 144,52.5C 145.513,55.0239 146.18,57.6906 146,60.5C 139.188,62.8261 132.688,65.8261 126.5,69.5C 123.693,72.784 121.693,76.4507 120.5,80.5C 116.37,80.4657 112.37,79.799 108.5,78.5C 107.432,77.5655 106.099,77.2322 104.5,77.5C 105.092,74.8728 105.425,72.2062 105.5,69.5C 102.513,69.4223 101.847,70.589 103.5,73C 102.033,77.2945 99.0334,78.6279 94.5,77C 93.8333,76.3333 93.1667,75.6667 92.5,75C 95.5,72 98.5,69 101.5,66C 97.3936,62.0326 92.8936,61.5326 88,64.5C 86,67.5 86,70.5 88,73.5C 90.6141,77.3006 94.1141,79.634 98.5,80.5C 95.315,86.6133 96.315,91.9466 101.5,96.5C 102.033,101.843 103.033,107.01 104.5,112C 102.88,116.636 100.046,120.469 96,123.5C 94.9196,125.996 93.5862,128.33 92,130.5C 90.314,136.423 91.9807,141.089 97,144.5C 96.4389,149.692 94.9389,154.692 92.5,159.5C 89.2407,162.048 86.074,164.714 83,167.5C 79.6408,172.718 79.9741,177.718 84,182.5C 86.3092,183.975 88.4759,185.642 90.5,187.5C 90.719,211.94 92.3857,236.274 95.5,260.5C 95.1527,263.528 93.986,266.194 92,268.5C 91.219,278.388 95.719,284.221 105.5,286C 106.804,286.804 107.471,287.971 107.5,289.5C 101.72,296.132 96.8867,303.465 93,311.5C 91.6859,315.754 90.8526,320.087 90.5,324.5C 89.5184,327.962 89.185,331.629 89.5,335.5C 82.8576,335.64 80.0242,338.973 81,345.5C 83.9731,352.049 88.8064,354.716 95.5,353.5C 102.118,364.662 111.452,372.828 123.5,378C 125.74,378.977 128.073,379.477 130.5,379.5C 132.634,381.033 135.134,381.7 138,381.5C 140.033,381.494 141.866,381.161 143.5,380.5C 148.833,380.167 154.167,379.833 159.5,379.5C 165.536,392.249 172.87,404.249 181.5,415.5C 181.67,416.822 181.337,417.989 180.5,419C 185,423.5 189.5,428 194,432.5C 194.383,431.944 194.883,431.611 195.5,431.5C 203.85,439.516 212.516,447.183 221.5,454.5C 211.139,458.232 201.972,463.898 194,471.5C 193.15,476.309 191.816,480.975 190,485.5C 176.076,502.676 165.242,521.676 157.5,542.5C 159.038,546.54 161.538,549.874 165,552.5C 164.377,557.459 163.544,562.459 162.5,567.5C 157.833,567.5 153.167,567.5 148.5,567.5C 152.257,564.937 153.924,561.27 153.5,556.5C 150.513,556.422 149.847,557.589 151.5,560C 150.033,564.295 147.033,565.628 142.5,564C 141.833,563.333 141.167,562.667 140.5,562C 143.5,559 146.5,556 149.5,553C 145.394,549.033 140.894,548.533 136,551.5C 134.627,553.695 134.294,556.029 135,558.5C 137.362,562.027 140.196,565.027 143.5,567.5C 95.5,567.5 47.5,567.5 -0.5,567.5C -0.5,549.5 -0.5,531.5 -0.5,513.5C 3.79776,517.296 7.96443,521.296 12,525.5C 12.5,525 13,524.5 13.5,524C 9.96359,520.799 6.79693,517.299 4,513.5C 3.14551,510.593 3.97884,508.26 6.5,506.5C 5.63505,505.417 4.63505,505.251 3.5,506C 2.283,507.648 1.44966,509.481 1,511.5C 0.617425,510.944 0.117425,510.611 -0.5,510.5C -0.5,457.833 -0.5,405.167 -0.5,352.5C 5.64207,355.672 9.14207,353.672 10,346.5C 10.8928,347.711 11.7261,347.711 12.5,346.5C 8.77307,341.77 4.43974,337.77 -0.5,334.5C -0.5,222.833 -0.5,111.167 -0.5,-0.5 Z"/></g>
<g><path style="opacity:1" fill="#ad0908" d="M 156.5,-0.5 C 157.5,-0.5 158.5,-0.5 159.5,-0.5C 163.497,3.66501 167.33,7.99834 171,12.5C 172.302,20.3617 169.136,23.695 161.5,22.5C 169.893,20.3999 171.393,16.0666 166,9.5C 166.053,12.6127 164.886,15.1127 162.5,17C 155.682,18.5469 150.849,16.0469 148,9.5C 147.062,2.93888 149.896,-0.394457 156.5,-0.5 Z"/></g>
<g><path style="opacity:1" fill="#a11414" d="M 250.5,-0.5 C 255.167,-0.5 259.833,-0.5 264.5,-0.5C 268.167,0.166667 271.833,0.833333 275.5,1.5C 267.071,1.32379 258.738,1.32379 250.5,1.5C 250.5,0.833333 250.5,0.166667 250.5,-0.5 Z"/></g>
<g><path style="opacity:1" fill="#d62b2b" d="M 264.5,-0.5 C 288.167,-0.5 311.833,-0.5 335.5,-0.5C 339.13,3.63104 342.963,7.63104 347,11.5C 348.824,10.2513 348.657,9.08467 346.5,8C 352.306,8.02528 355.306,5.19194 355.5,-0.5C 406.833,-0.5 458.167,-0.5 509.5,-0.5C 505.433,2.32311 504.6,5.98978 507,10.5C 508.833,12.3333 510.667,14.1667 512.5,16C 519.557,18.2607 523.39,15.7607 524,8.5C 529.393,15.0666 527.893,19.3999 519.5,21.5C 525.502,23.1562 528.835,20.8228 529.5,14.5C 529.423,12.701 528.923,11.0344 528,9.5C 524.629,6.29747 521.462,2.96414 518.5,-0.5C 534.833,-0.5 551.167,-0.5 567.5,-0.5C 567.5,16.5 567.5,33.5 567.5,50.5C 565.37,48.8729 563.37,47.0396 561.5,45C 554.147,42.0937 550.313,44.5937 550,52.5C 547.833,50.3333 545.667,48.1667 543.5,46C 542.668,45.3123 542.002,45.479 541.5,46.5C 547.485,52.9855 553.652,59.3189 560,65.5C 561.824,64.2513 561.657,63.0847 559.5,62C 562.792,61.9964 565.458,60.8297 567.5,58.5C 567.5,79.8333 567.5,101.167 567.5,122.5C 562.768,122.924 560.601,125.59 561,130.5C 558.833,128.333 556.667,126.167 554.5,124C 553.668,123.312 553.002,123.479 552.5,124.5C 557.188,129.854 562.188,134.854 567.5,139.5C 567.5,141.5 567.5,143.5 567.5,145.5C 565.856,146.366 564.189,146.866 562.5,147C 559.667,144.167 556.833,141.333 554,138.5C 553.667,136.953 554.167,135.62 555.5,134.5C 555.167,134.167 554.833,133.833 554.5,133.5C 553.5,134.167 552.5,134.833 551.5,135.5C 546.167,131.5 545.5,132.167 549.5,137.5C 546.833,141.5 547.5,142.167 551.5,139.5C 554.985,142.484 558.318,145.651 561.5,149C 563.598,149.678 565.598,149.511 567.5,148.5C 567.5,232.167 567.5,315.833 567.5,399.5C 560.494,394.327 556.327,395.994 555,404.5C 552.833,402.333 550.667,400.167 548.5,398C 547.668,397.312 547.002,397.479 546.5,398.5C 552.485,404.986 558.652,411.319 565,417.5C 565.5,417 566,416.5 566.5,416C 562.064,412.751 559.064,408.585 557.5,403.5C 557.306,400.864 558.472,399.197 561,398.5C 563.571,399.25 565.738,400.583 567.5,402.5C 567.5,430.167 567.5,457.833 567.5,485.5C 565.871,484.375 564.371,483.041 563,481.5C 561.176,482.749 561.343,483.915 563.5,485C 555.565,485.38 553.065,489.213 556,496.5C 558.624,500.985 562.458,502.985 567.5,502.5C 567.5,524.167 567.5,545.833 567.5,567.5C 512.833,567.5 458.167,567.5 403.5,567.5C 400.857,564.66 400.024,561.327 401,557.5C 402.938,555.022 405.105,554.855 407.5,557C 410.167,559.667 412.833,562.333 415.5,565C 416.332,565.688 416.998,565.521 417.5,564.5C 414.314,560.48 410.647,556.98 406.5,554C 403.593,553.282 400.926,553.782 398.5,555.5C 400.158,552.206 402.324,549.206 405,546.5C 405.875,545.127 406.375,543.627 406.5,542C 405.436,537.036 403.936,532.203 402,527.5C 393.576,511.64 383.91,496.64 373,482.5C 372.287,477.947 370.953,473.613 369,469.5C 367.167,467.667 365.333,465.833 363.5,464C 357.696,461.117 352.029,457.951 346.5,454.5C 364.846,439.652 381.012,422.652 395,403.5C 399.709,395.958 404.209,388.291 408.5,380.5C 410.396,379.534 412.396,379.201 414.5,379.5C 421.167,382.167 427.833,382.167 434.5,379.5C 450.072,377.124 461.905,369.124 470,355.5C 481.019,332.218 478.185,310.885 461.5,291.5C 461.887,289.726 462.553,288.059 463.5,286.5C 480.278,283.85 484.944,274.85 477.5,259.5C 479.67,236.886 481.003,214.219 481.5,191.5C 487.246,186.615 488.746,180.615 486,173.5C 482.517,171.123 479.85,168.123 478,164.5C 477.663,161.139 477.163,157.806 476.5,154.5C 479.529,151.108 481.529,147.108 482.5,142.5C 481.509,136.843 478.176,133.509 472.5,132.5C 470.043,127.009 468.043,121.342 466.5,115.5C 471.149,105.495 468.149,99.1613 457.5,96.5C 455.128,91.5491 452.295,86.8825 449,82.5C 449.956,73.6783 446.122,68.5116 437.5,67C 416.648,45.4021 391.648,30.7354 362.5,23C 359.348,19.846 355.681,17.5127 351.5,16C 343.523,16.5438 335.523,16.8771 327.5,17C 321.908,15.5767 317.574,12.41 314.5,7.5C 306.766,0.529325 299.433,0.862659 292.5,8.5C 287.326,4.79931 281.66,2.46597 275.5,1.5C 271.833,0.833333 268.167,0.166667 264.5,-0.5 Z"/></g>
<g><path style="opacity:1" fill="#ad0908" d="M 335.5,-0.5 C 336.833,-0.5 338.167,-0.5 339.5,-0.5C 342.229,5.5326 346.395,6.86593 352,3.5C 352.49,2.20677 352.657,0.873441 352.5,-0.5C 353.5,-0.5 354.5,-0.5 355.5,-0.5C 355.306,5.19194 352.306,8.02528 346.5,8C 348.657,9.08467 348.824,10.2513 347,11.5C 342.963,7.63104 339.13,3.63104 335.5,-0.5 Z"/></g>
<g><path style="opacity:1" fill="#d72b2b" d="M 339.5,-0.5 C 343.833,-0.5 348.167,-0.5 352.5,-0.5C 352.657,0.873441 352.49,2.20677 352,3.5C 346.395,6.86593 342.229,5.5326 339.5,-0.5 Z"/></g>
<g><path style="opacity:1" fill="#ad0908" d="M 509.5,-0.5 C 512.5,-0.5 515.5,-0.5 518.5,-0.5C 521.462,2.96414 524.629,6.29747 528,9.5C 528.923,11.0344 529.423,12.701 529.5,14.5C 528.835,20.8228 525.502,23.1562 519.5,21.5C 527.893,19.3999 529.393,15.0666 524,8.5C 523.39,15.7607 519.557,18.2607 512.5,16C 510.667,14.1667 508.833,12.3333 507,10.5C 504.6,5.98978 505.433,2.32311 509.5,-0.5 Z"/></g>
<g><path style="opacity:1" fill="#d62b2a" d="M 510.5,1.5 C 520.106,1.25425 523.106,5.42091 519.5,14C 513.298,14.7965 509.632,12.1298 508.5,6C 508.759,4.21343 509.425,2.71343 510.5,1.5 Z"/></g>
<g><path style="opacity:1" fill="#af0b0a" d="M 56.5,-0.5 C 59.8333,-0.5 63.1667,-0.5 66.5,-0.5C 65.138,7.97384 68.8047,11.8072 77.5,11C 79.4439,8.84707 79.9439,6.34707 79,3.5C 77.6244,2.29493 76.4577,0.961599 75.5,-0.5C 76.5,-0.5 77.5,-0.5 78.5,-0.5C 84.997,7.19409 83.3303,12.0274 73.5,14C 75.6574,15.0847 75.8241,16.2513 74,17.5C 67.9638,11.6314 62.1305,5.63143 56.5,-0.5 Z"/></g>
<g><path style="opacity:1" fill="#d62a2a" d="M 66.5,-0.5 C 69.5,-0.5 72.5,-0.5 75.5,-0.5C 76.4577,0.961599 77.6244,2.29493 79,3.5C 79.9439,6.34707 79.4439,8.84707 77.5,11C 68.8047,11.8072 65.138,7.97384 66.5,-0.5 Z"/></g>
<g><path style="opacity:1" fill="#d62b2a" d="M 152.5,2.5 C 162.106,2.25425 165.106,6.42091 161.5,15C 155.298,15.7965 151.632,13.1298 150.5,7C 150.759,5.21343 151.425,3.71343 152.5,2.5 Z"/></g>
<g><path style="opacity:1" fill="#080404" d="M 275.5,1.5 C 281.66,2.46597 287.326,4.79931 292.5,8.5C 299.433,0.862659 306.766,0.529325 314.5,7.5C 317.574,12.41 321.908,15.5767 327.5,17C 335.523,16.8771 343.523,16.5438 351.5,16C 355.681,17.5127 359.348,19.846 362.5,23C 391.648,30.7354 416.648,45.4021 437.5,67C 446.122,68.5116 449.956,73.6783 449,82.5C 452.295,86.8825 455.128,91.5491 457.5,96.5C 468.149,99.1613 471.149,105.495 466.5,115.5C 468.043,121.342 470.043,127.009 472.5,132.5C 478.176,133.509 481.509,136.843 482.5,142.5C 481.529,147.108 479.529,151.108 476.5,154.5C 477.163,157.806 477.663,161.139 478,164.5C 479.85,168.123 482.517,171.123 486,173.5C 488.746,180.615 487.246,186.615 481.5,191.5C 481.003,214.219 479.67,236.886 477.5,259.5C 484.944,274.85 480.278,283.85 463.5,286.5C 462.553,288.059 461.887,289.726 461.5,291.5C 478.185,310.885 481.019,332.218 470,355.5C 461.905,369.124 450.072,377.124 434.5,379.5C 427.833,379.5 421.167,379.5 414.5,379.5C 412.396,379.201 410.396,379.534 408.5,380.5C 404.209,388.291 399.709,395.958 395,403.5C 381.012,422.652 364.846,439.652 346.5,454.5C 352.029,457.951 357.696,461.117 363.5,464C 365.333,465.833 367.167,467.667 369,469.5C 370.953,473.613 372.287,477.947 373,482.5C 383.91,496.64 393.576,511.64 402,527.5C 403.936,532.203 405.436,537.036 406.5,542C 406.375,543.627 405.875,545.127 405,546.5C 402.324,549.206 400.158,552.206 398.5,555.5C 399.038,559.524 399.705,563.524 400.5,567.5C 396.833,567.5 393.167,567.5 389.5,567.5C 389.884,565.335 389.217,563.668 387.5,562.5C 384.769,564.192 382.102,565.858 379.5,567.5C 365.167,567.5 350.833,567.5 336.5,567.5C 333.324,543.595 337.157,520.928 348,499.5C 351.443,492.16 355.443,485.16 360,478.5C 360.573,475.482 359.406,473.315 356.5,472C 349.468,467.67 341.968,464.17 334,461.5C 332.715,461.95 331.548,462.617 330.5,463.5C 329.668,474.151 329.168,484.818 329,495.5C 328.368,503.319 325.201,509.986 319.5,515.5C 309.587,525.247 298.92,534.08 287.5,542C 285.726,542.97 283.893,543.804 282,544.5C 269.062,537.565 257.228,529.065 246.5,519C 240.602,513.698 236.935,507.198 235.5,499.5C 234.911,486.684 234.244,474.018 233.5,461.5C 226.176,463.66 219.176,466.494 212.5,470C 208.719,471.618 205.719,474.118 203.5,477.5C 212.984,493.143 220.318,509.81 225.5,527.5C 225.565,530.428 226.232,533.095 227.5,535.5C 227.5,546.167 227.5,556.833 227.5,567.5C 213.167,567.5 198.833,567.5 184.5,567.5C 181.312,565.31 178.145,562.976 175,560.5C 174.009,562.808 173.176,565.141 172.5,567.5C 169.167,567.5 165.833,567.5 162.5,567.5C 163.544,562.459 164.377,557.459 165,552.5C 161.538,549.874 159.038,546.54 157.5,542.5C 165.242,521.676 176.076,502.676 190,485.5C 191.816,480.975 193.15,476.309 194,471.5C 201.972,463.898 211.139,458.232 221.5,454.5C 212.516,447.183 203.85,439.516 195.5,431.5C 190.913,426.18 186.247,420.847 181.5,415.5C 172.87,404.249 165.536,392.249 159.5,379.5C 154.167,379.833 148.833,380.167 143.5,380.5C 139.202,379.8 134.869,379.467 130.5,379.5C 128.073,379.477 125.74,378.977 123.5,378C 111.452,372.828 102.118,364.662 95.5,353.5C 91.3915,344.287 89.7248,334.62 90.5,324.5C 90.8526,320.087 91.6859,315.754 93,311.5C 96.8867,303.465 101.72,296.132 107.5,289.5C 107.471,287.971 106.804,286.804 105.5,286C 95.719,284.221 91.219,278.388 92,268.5C 93.986,266.194 95.1527,263.528 95.5,260.5C 92.3857,236.274 90.719,211.94 90.5,187.5C 88.4759,185.642 86.3092,183.975 84,182.5C 79.9741,177.718 79.6408,172.718 83,167.5C 86.074,164.714 89.2407,162.048 92.5,159.5C 94.9389,154.692 96.4389,149.692 97,144.5C 91.9807,141.089 90.314,136.423 92,130.5C 93.5862,128.33 94.9196,125.996 96,123.5C 100.046,120.469 102.88,116.636 104.5,112C 103.033,107.01 102.033,101.843 101.5,96.5C 96.315,91.9466 95.315,86.6133 98.5,80.5C 101.552,78.8217 104.885,78.155 108.5,78.5C 112.37,79.799 116.37,80.4657 120.5,80.5C 121.693,76.4507 123.693,72.784 126.5,69.5C 132.688,65.8261 139.188,62.8261 146,60.5C 146.18,57.6906 145.513,55.0239 144,52.5C 142.225,46.4884 143.725,41.6551 148.5,38C 157.798,38.7983 167.132,39.1316 176.5,39C 185.756,35.4171 195.089,32.0838 204.5,29C 206.847,27.1275 208.847,24.9608 210.5,22.5C 216.15,20.1108 221.816,17.6108 227.5,15C 228.381,14.2917 229.047,13.4584 229.5,12.5C 233.943,11.1985 238.609,10.5319 243.5,10.5C 244.03,5.98261 246.364,2.98261 250.5,1.5C 258.738,1.32379 267.071,1.32379 275.5,1.5 Z"/></g>
<g><path style="opacity:1" fill="#ac0706" d="M 499.5,8.5 C 503.157,8.97403 503.324,10.3074 500,12.5C 499.333,13.8333 499.333,15.1667 500,16.5C 502.797,20.2988 505.964,23.7988 509.5,27C 509,27.5 508.5,28 508,28.5C 503.5,24 499,19.5 494.5,15C 495.253,13.513 496.086,13.3463 497,14.5C 497.573,12.3594 498.406,10.3594 499.5,8.5 Z"/></g>
<g><path style="opacity:1" fill="#ab0606" d="M 139.5,13.5 C 141.989,13.2978 144.323,13.7978 146.5,15C 149.683,18.0155 152.683,21.1822 155.5,24.5C 154.998,25.521 154.332,25.6877 153.5,25C 150.465,21.6298 147.132,18.6298 143.5,16C 141.633,15.2888 140.133,15.7888 139,17.5C 138.333,19.5 138.333,21.5 139,23.5C 141.463,26.9646 144.296,30.1312 147.5,33C 147,33.5 146.5,34 146,34.5C 141.5,30 137,25.5 132.5,21C 133.749,19.1759 134.915,19.3426 136,21.5C 136.004,18.2084 137.17,15.5418 139.5,13.5 Z"/></g>
<g><path style="opacity:1" fill="#410f14" d="M 229.5,12.5 C 229.047,13.4584 228.381,14.2917 227.5,15C 221.816,17.6108 216.15,20.1108 210.5,22.5C 211.716,20.5491 213.382,19.0491 215.5,18C 220.411,16.6438 225.077,14.8104 229.5,12.5 Z"/></g>
<g><path style="opacity:1" fill="#711a20" d="M 315.5,25.5 C 318.388,24.9898 320.721,25.6565 322.5,27.5C 319.612,28.0102 317.279,27.3435 315.5,25.5 Z"/></g>
<g><path style="opacity:1" fill="#9e1729" d="M 279.5,25.5 C 277.206,27.653 274.54,29.3197 271.5,30.5C 271.511,28.9826 272.177,27.8159 273.5,27C 270.231,27.1565 266.898,27.4899 263.5,28C 264.517,29.0495 264.684,30.2161 264,31.5C 258.803,29.5798 253.303,28.9132 247.5,29.5C 252.449,27.7758 257.782,26.6091 263.5,26C 268.823,25.5006 274.156,25.334 279.5,25.5 Z"/></g>
<g><path style="opacity:1" fill="#fdfdfd" d="M 296.5,27.5 C 338.831,50.1752 379.498,75.6752 418.5,104C 432.931,115.359 441.265,130.192 443.5,148.5C 443.41,151.152 444.076,153.485 445.5,155.5C 450.329,183.615 452.663,211.948 452.5,240.5C 406.511,210.326 355.844,194.659 300.5,193.5C 297.713,192.523 294.713,192.19 291.5,192.5C 291.167,137.496 291.5,82.496 292.5,27.5C 293.726,26.6371 295.06,26.6371 296.5,27.5 Z"/></g>
<g><path style="opacity:1" fill="#ad0808" d="M 126.5,25.5 C 128.655,25.372 130.655,25.872 132.5,27C 135.667,30.1667 138.833,33.3333 142,36.5C 142.309,38.5129 141.642,38.8463 140,37.5C 138.77,45.2892 135.104,46.9559 129,42.5C 128.333,40.5 128.333,38.5 129,36.5C 130.366,34.6297 131.533,32.6297 132.5,30.5C 130.956,28.5539 128.956,28.0539 126.5,29C 124.398,30.7328 124.065,32.7328 125.5,35C 124.975,35.6924 124.308,36.1924 123.5,36.5C 122.353,34.2351 122.186,31.9018 123,29.5C 124.376,28.2949 125.542,26.9616 126.5,25.5 Z"/></g>
<g><path style="opacity:1" fill="#fefefe" d="M 279.5,25.5 C 280.167,25.5 280.833,25.5 281.5,25.5C 282.5,25.5 283.5,25.5 284.5,25.5C 284.5,81.5 284.5,137.5 284.5,193.5C 226.095,192.18 172.428,207.18 123.5,238.5C 122.659,204.264 126.492,170.598 135,137.5C 137.423,130.559 140.423,123.892 144,117.5C 153.218,108.282 163.051,99.7818 173.5,92C 205.782,70.7029 238.449,50.2029 271.5,30.5C 274.54,29.3197 277.206,27.653 279.5,25.5 Z"/></g>
<g><path style="opacity:1" fill="#ac0707" d="M 487.5,21.5 C 491.819,20.7992 495.486,21.9659 498.5,25C 495.5,28 492.5,31 489.5,34C 492.032,36.4146 495.032,37.0813 498.5,36C 500.442,34.0281 500.776,31.8615 499.5,29.5C 500.325,28.6143 501.325,28.281 502.5,28.5C 503.314,36.1835 499.981,39.6835 492.5,39C 486.665,36.2057 483.831,31.7057 484,25.5C 484.69,23.6498 485.856,22.3164 487.5,21.5 Z"/></g>
<g><path style="opacity:1" fill="#d42929" d="M 487.5,23.5 C 489.527,23.3379 491.527,23.5045 493.5,24C 493.957,24.414 494.291,24.914 494.5,25.5C 492.517,27.9837 490.35,30.3171 488,32.5C 484.878,29.6443 484.711,26.6443 487.5,23.5 Z"/></g>
<g><path style="opacity:1" fill="#9d9d9d" d="M 281.5,25.5 C 282.568,24.5655 283.901,24.2322 285.5,24.5C 285.832,81.0025 285.499,137.336 284.5,193.5C 284.5,137.5 284.5,81.5 284.5,25.5C 283.5,25.5 282.5,25.5 281.5,25.5 Z"/></g>
<g><path style="opacity:1" fill="#e2e1e1" d="M 295.5,25.5 C 295.833,26.1667 296.167,26.8333 296.5,27.5C 295.06,26.6371 293.726,26.6371 292.5,27.5C 291.5,82.496 291.167,137.496 291.5,192.5C 294.713,192.19 297.713,192.523 300.5,193.5C 297.167,193.5 293.833,193.5 290.5,193.5C 290.5,137.5 290.5,81.5 290.5,25.5C 292.167,25.5 293.833,25.5 295.5,25.5 Z"/></g>
<g><path style="opacity:1" fill="#d52a2a" d="M 133.5,32.5 C 136.286,32.9564 137.619,34.6231 137.5,37.5C 137.486,41.609 135.486,43.109 131.5,42C 130.919,41.1074 130.585,40.1074 130.5,39C 131.259,36.735 132.259,34.5683 133.5,32.5 Z"/></g>
<g><path style="opacity:1" fill="#ad0808" d="M 116.5,36.5 C 122.163,41.33 127.33,46.6633 132,52.5C 133.302,60.3617 130.136,63.695 122.5,62.5C 130.893,60.3999 132.393,56.0666 127,49.5C 126.39,56.7607 122.557,59.2607 115.5,57C 112.96,54.7953 110.793,52.2953 109,49.5C 107.877,42.9502 110.711,39.7835 117.5,40C 115.627,39.0471 115.294,37.8804 116.5,36.5 Z"/></g>
<g><path style="opacity:1" fill="#d62b2a" d="M 113.5,42.5 C 123.106,42.2542 126.106,46.4209 122.5,55C 116.298,55.7965 112.632,53.1298 111.5,47C 111.759,45.2134 112.425,43.7134 113.5,42.5 Z"/></g>
<g><path style="opacity:1" fill="#ab0606" d="M 475.5,33.5 C 477.989,33.2978 480.323,33.7978 482.5,35C 485.683,38.0155 488.683,41.1822 491.5,44.5C 490.998,45.521 490.332,45.6877 489.5,45C 486.465,41.6298 483.132,38.6298 479.5,36C 477.633,35.2888 476.133,35.7888 475,37.5C 474.333,39.5 474.333,41.5 475,43.5C 477.463,46.9646 480.296,50.1312 483.5,53C 483,53.5 482.5,54 482,54.5C 475.652,48.3189 469.485,41.9855 463.5,35.5C 464.002,34.479 464.668,34.3123 465.5,35C 467.667,37.1667 469.833,39.3333 472,41.5C 472.004,38.2084 473.17,35.5418 475.5,33.5 Z"/></g>
<g><path style="opacity:1" fill="#ab0606" d="M 457.5,43.5 C 459.394,44.0476 461.06,45.0476 462.5,46.5C 463.5,45.8333 464.5,45.1667 465.5,44.5C 465.833,44.8333 466.167,45.1667 466.5,45.5C 465.167,46.6199 464.667,47.9532 465,49.5C 467.833,52.3333 470.667,55.1667 473.5,58C 475.047,58.3334 476.38,57.8334 477.5,56.5C 478.583,57.365 478.749,58.365 478,59.5C 476.274,60.5762 474.441,60.7429 472.5,60C 469.318,56.6507 465.985,53.484 462.5,50.5C 458.5,53.1667 457.833,52.5 460.5,48.5C 459.048,47.0603 458.048,45.3936 457.5,43.5 Z"/></g>
<g><path style="opacity:1" fill="#ac0706" d="M 101.5,50.5 C 105.157,50.974 105.324,52.3074 102,54.5C 101.333,55.8333 101.333,57.1667 102,58.5C 104.797,62.2988 107.964,65.7988 111.5,69C 111,69.5 110.5,70 110,70.5C 105.5,66 101,61.5 96.5,57C 97.2529,55.513 98.0862,55.3463 99,56.5C 99.5725,54.3594 100.406,52.3594 101.5,50.5 Z"/></g>
<g><path style="opacity:1" fill="#ad0808" d="M 567.5,50.5 C 567.5,53.1667 567.5,55.8333 567.5,58.5C 565.458,60.8297 562.792,61.9964 559.5,62C 561.657,63.0847 561.824,64.2513 560,65.5C 553.652,59.3189 547.485,52.9855 541.5,46.5C 542.002,45.479 542.668,45.3123 543.5,46C 545.667,48.1667 547.833,50.3333 550,52.5C 550.313,44.5937 554.147,42.0937 561.5,45C 563.37,47.0396 565.37,48.8729 567.5,50.5 Z"/></g>
<g><path style="opacity:1" fill="#d72b2b" d="M 554.5,46.5 C 561.983,46.4808 565.483,50.1475 565,57.5C 558.27,61.0525 554.103,59.0525 552.5,51.5C 552.437,49.4861 553.103,47.8194 554.5,46.5 Z"/></g>
<g><path style="opacity:1" fill="#ae0909" d="M 452.5,55.5 C 457.351,54.7841 461.518,56.1175 465,59.5C 468.433,64.1333 468.267,68.6333 464.5,73C 462.305,74.373 459.971,74.7063 457.5,74C 451.665,71.2057 448.831,66.7057 449,60.5C 450.176,58.8043 451.343,57.1376 452.5,55.5 Z"/></g>
<g><path style="opacity:1" fill="#d62a2a" d="M 453.5,57.5 C 459.772,57.4349 463.772,60.4349 465.5,66.5C 464.182,71.0782 461.182,72.5782 456.5,71C 451.199,67.3637 450.199,62.8637 453.5,57.5 Z"/></g>
<g><path style="opacity:1" fill="#ab0808" d="M 108.5,78.5 C 104.885,78.155 101.552,78.8217 98.5,80.5C 94.1141,79.634 90.6141,77.3006 88,73.5C 86,70.5 86,67.5 88,64.5C 92.8936,61.5326 97.3936,62.0326 101.5,66C 98.5,69 95.5,72 92.5,75C 93.1667,75.6667 93.8333,76.3333 94.5,77C 99.0334,78.6279 102.033,77.2945 103.5,73C 101.847,70.589 102.513,69.4223 105.5,69.5C 105.425,72.2062 105.092,74.8728 104.5,77.5C 106.099,77.2322 107.432,77.5655 108.5,78.5 Z"/></g>
<g><path style="opacity:1" fill="#d42929" d="M 90.5,64.5 C 92.5273,64.3379 94.5273,64.5045 96.5,65C 96.9574,65.414 97.2907,65.914 97.5,66.5C 95.517,68.9837 93.3504,71.3171 91,73.5C 87.8777,70.6443 87.7111,67.6443 90.5,64.5 Z"/></g>
<g><path style="opacity:1" fill="#ab0606" d="M 77.5,75.5 C 79.9892,75.2978 82.3225,75.7978 84.5,77C 87.6828,80.0155 90.6828,83.1822 93.5,86.5C 92.9984,87.521 92.3317,87.6877 91.5,87C 88.465,83.6298 85.1317,80.6298 81.5,78C 79.6332,77.2888 78.1332,77.7888 77,79.5C 76.3333,81.5 76.3333,83.5 77,85.5C 79.4626,88.9646 82.2959,92.1312 85.5,95C 85,95.5 84.5,96 84,96.5C 77.6519,90.3189 71.4852,83.9855 65.5,77.5C 66.0016,76.479 66.6683,76.3123 67.5,77C 69.6667,79.1667 71.8333,81.3333 74,83.5C 74.0036,80.2084 75.1703,77.5418 77.5,75.5 Z"/></g>
<g><path style="opacity:1" fill="#ab0606" d="M 60.5,84.5 C 62.3936,85.0476 64.0603,86.0476 65.5,87.5C 66.5,86.8333 67.5,86.1667 68.5,85.5C 68.8333,85.8333 69.1667,86.1667 69.5,86.5C 68.1666,87.6199 67.6666,88.9532 68,90.5C 70.8333,93.3333 73.6667,96.1667 76.5,99C 78.0468,99.3334 79.3801,98.8334 80.5,97.5C 81.5827,98.365 81.7494,99.365 81,100.5C 79.2739,101.576 77.4406,101.743 75.5,101C 72.318,97.6507 68.9846,94.484 65.5,91.5C 61.5,94.1667 60.8333,93.5 63.5,89.5C 62.0476,88.0603 61.0476,86.3936 60.5,84.5 Z"/></g>
<g><path style="opacity:1" fill="#ae0909" d="M 54.5,97.5 C 59.3514,96.7841 63.5181,98.1175 67,101.5C 70.4333,106.133 70.2667,110.633 66.5,115C 64.3046,116.373 61.9712,116.706 59.5,116C 53.6646,113.206 50.8313,108.706 51,102.5C 52.1764,100.804 53.343,99.1376 54.5,97.5 Z"/></g>
<g><path style="opacity:1" fill="#d62a2a" d="M 55.5,99.5 C 61.7716,99.4349 65.7716,102.435 67.5,108.5C 66.1823,113.078 63.1823,114.578 58.5,113C 53.1994,109.364 52.1994,104.864 55.5,99.5 Z"/></g>
<g><path style="opacity:1" fill="#ac0706" d="M 44.5,107.5 C 48.1569,107.974 48.3236,109.307 45,111.5C 44.3333,112.833 44.3333,114.167 45,115.5C 47.7969,119.299 50.9636,122.799 54.5,126C 54,126.5 53.5,127 53,127.5C 48.5,123 44,118.5 39.5,114C 40.2529,112.513 41.0862,112.346 42,113.5C 42.5725,111.359 43.4058,109.359 44.5,107.5 Z"/></g>
<g><path style="opacity:1" fill="#ae0909" d="M 33.5,119.5 C 39.6802,119.826 44.1802,122.826 47,128.5C 47.7804,134.726 44.9471,137.893 38.5,138C 40.6574,139.085 40.8241,140.251 39,141.5C 32.6519,135.319 26.4852,128.986 20.5,122.5C 21.0016,121.479 21.6683,121.312 22.5,122C 24.6667,124.167 26.8333,126.333 29,128.5C 28.6451,124.412 30.1451,121.412 33.5,119.5 Z"/></g>
<g><path style="opacity:1" fill="#d72b2b" d="M 33.5,122.5 C 40.9828,122.481 44.4828,126.148 44,133.5C 37.2695,137.052 33.1029,135.052 31.5,127.5C 31.4365,125.486 32.1032,123.819 33.5,122.5 Z"/></g>
<g><path style="opacity:1" fill="#ba0f25" d="M 295.5,25.5 C 302.167,25.5 308.833,25.5 315.5,25.5C 317.279,27.3435 319.612,28.0102 322.5,27.5C 369.097,29.3815 407.597,48.0482 438,83.5C 445.047,95.2095 451.213,107.209 456.5,119.5C 456.846,122.885 457.512,126.218 458.5,129.5C 457.844,131.453 457.511,133.453 457.5,135.5C 458.5,135.5 459.5,135.5 460.5,135.5C 459.908,138.631 460.908,140.964 463.5,142.5C 463.5,143.167 463.5,143.833 463.5,144.5C 463.41,147.152 464.076,149.485 465.5,151.5C 466.167,156.833 466.833,162.167 467.5,167.5C 467.527,173.051 468.194,178.384 469.5,183.5C 469.5,202.167 469.5,220.833 469.5,239.5C 468.215,242.589 467.549,245.922 467.5,249.5C 466.5,249.5 465.5,249.5 464.5,249.5C 460.369,246.637 456.369,243.637 452.5,240.5C 452.663,211.948 450.329,183.615 445.5,155.5C 445.59,152.848 444.924,150.515 443.5,148.5C 441.265,130.192 432.931,115.359 418.5,104C 379.498,75.6752 338.831,50.1752 296.5,27.5C 296.167,26.8333 295.833,26.1667 295.5,25.5 Z"/></g>
<g><path style="opacity:1" fill="#b91025" d="M 271.5,30.5 C 238.449,50.2029 205.782,70.7029 173.5,92C 163.051,99.7818 153.218,108.282 144,117.5C 140.423,123.892 137.423,130.559 135,137.5C 126.492,170.598 122.659,204.264 123.5,238.5C 117.483,243.031 111.15,247.364 104.5,251.5C 103.739,242.175 103.072,232.842 102.5,223.5C 102.5,207.491 102.834,191.491 103.5,175.5C 104.167,170.167 104.833,164.833 105.5,159.5C 106.887,156.361 108.054,153.028 109,149.5C 109.743,151.645 110.576,151.811 111.5,150C 109.987,148.121 109.321,145.954 109.5,143.5C 120.797,100.885 145.797,69.2182 184.5,48.5C 190.648,45.895 196.648,43.0616 202.5,40C 216.93,34.6217 231.93,31.1217 247.5,29.5C 253.303,28.9132 258.803,29.5798 264,31.5C 264.684,30.2161 264.517,29.0495 263.5,28C 266.898,27.4899 270.231,27.1565 273.5,27C 272.177,27.8159 271.511,28.9826 271.5,30.5 Z"/></g>
<g><path style="opacity:1" fill="#b61210" d="M 567.5,122.5 C 567.5,128.167 567.5,133.833 567.5,139.5C 562.188,134.854 557.188,129.854 552.5,124.5C 553.002,123.479 553.668,123.312 554.5,124C 556.667,126.167 558.833,128.333 561,130.5C 560.601,125.59 562.768,122.924 567.5,122.5 Z"/></g>
<g><path style="opacity:1" fill="#ab0606" d="M 567.5,145.5 C 567.5,146.5 567.5,147.5 567.5,148.5C 565.598,149.511 563.598,149.678 561.5,149C 558.318,145.651 554.985,142.484 551.5,139.5C 547.5,142.167 546.833,141.5 549.5,137.5C 545.5,132.167 546.167,131.5 551.5,135.5C 552.5,134.833 553.5,134.167 554.5,133.5C 554.833,133.833 555.167,134.167 555.5,134.5C 554.167,135.62 553.667,136.953 554,138.5C 556.833,141.333 559.667,144.167 562.5,147C 564.189,146.866 565.856,146.366 567.5,145.5 Z"/></g>
<g><path style="opacity:1" fill="#921223" d="M 456.5,119.5 C 459.635,126.81 461.969,134.477 463.5,142.5C 460.908,140.964 459.908,138.631 460.5,135.5C 459.5,135.5 458.5,135.5 457.5,135.5C 457.511,133.453 457.844,131.453 458.5,129.5C 457.512,126.218 456.846,122.885 456.5,119.5 Z"/></g>
<g><path style="opacity:1" fill="#ae0909" d="M 541.5,144.5 C 546.351,143.784 550.518,145.117 554,148.5C 557.433,153.133 557.267,157.633 553.5,162C 551.305,163.373 548.971,163.706 546.5,163C 540.665,160.206 537.831,155.706 538,149.5C 539.176,147.804 540.343,146.138 541.5,144.5 Z"/></g>
<g><path style="opacity:1" fill="#d62a2a" d="M 542.5,146.5 C 548.772,146.435 552.772,149.435 554.5,155.5C 553.182,160.078 550.182,161.578 545.5,160C 540.199,156.364 539.199,151.864 542.5,146.5 Z"/></g>
<g><path style="opacity:1" fill="#88111f" d="M 109.5,143.5 C 109.321,145.954 109.987,148.121 111.5,150C 110.576,151.811 109.743,151.645 109,149.5C 108.054,153.028 106.887,156.361 105.5,159.5C 106.214,153.906 107.547,148.573 109.5,143.5 Z"/></g>
<g><path style="opacity:1" fill="#5b0c16" d="M 463.5,144.5 C 465.163,146.438 465.829,148.772 465.5,151.5C 464.076,149.485 463.41,147.152 463.5,144.5 Z"/></g>
<g><path style="opacity:1" fill="#d09b9e" d="M 443.5,148.5 C 444.924,150.515 445.59,152.848 445.5,155.5C 444.076,153.485 443.41,151.152 443.5,148.5 Z"/></g>
<g><path style="opacity:1" fill="#ac0706" d="M 531.5,155.5 C 535.157,155.974 535.324,157.307 532,159.5C 531.333,160.833 531.333,162.167 532,163.5C 534.797,167.299 537.964,170.799 541.5,174C 541,174.5 540.5,175 540,175.5C 535.5,171 531,166.5 526.5,162C 527.253,160.513 528.086,160.346 529,161.5C 529.573,159.359 530.406,157.359 531.5,155.5 Z"/></g>
<g><path style="opacity:1" fill="#67101b" d="M 467.5,167.5 C 469.178,172.568 469.844,177.902 469.5,183.5C 468.194,178.384 467.527,173.051 467.5,167.5 Z"/></g>
<g><path style="opacity:1" fill="#ae0909" d="M 520.5,167.5 C 526.68,167.826 531.18,170.826 534,176.5C 534.78,182.726 531.947,185.893 525.5,186C 527.657,187.085 527.824,188.251 526,189.5C 519.652,183.319 513.485,176.986 507.5,170.5C 508.002,169.479 508.668,169.312 509.5,170C 511.667,172.167 513.833,174.333 516,176.5C 515.645,172.412 517.145,169.412 520.5,167.5 Z"/></g>
<g><path style="opacity:1" fill="#d72b2b" d="M 520.5,170.5 C 527.983,170.481 531.483,174.148 531,181.5C 524.27,185.052 520.103,183.052 518.5,175.5C 518.437,173.486 519.103,171.819 520.5,170.5 Z"/></g>
<g><path style="opacity:1" fill="#eb9b9a" d="M 387.5,180.5 C 390.355,179.197 393.355,179.197 396.5,180.5C 396.376,181.107 396.043,181.44 395.5,181.5C 393.052,180.527 390.385,180.194 387.5,180.5 Z"/></g>
<g><path style="opacity:1" fill="#ad0808" d="M 60.5,181.5 C 66.163,186.33 71.3296,191.663 76,197.5C 77.3024,205.362 74.1357,208.695 66.5,207.5C 74.8931,205.4 76.3931,201.067 71,194.5C 70.3901,201.761 66.5567,204.261 59.5,202C 56.9598,199.795 54.7932,197.295 53,194.5C 51.8775,187.95 54.7108,184.784 61.5,185C 59.6269,184.047 59.2935,182.88 60.5,181.5 Z"/></g>
<g><path style="opacity:1" fill="#d62b2a" d="M 57.5,187.5 C 67.1058,187.254 70.1058,191.421 66.5,200C 60.2985,200.796 56.6318,198.13 55.5,192C 55.7586,190.213 56.4253,188.713 57.5,187.5 Z"/></g>
<g><path style="opacity:1" fill="#d73332" d="M 395.5,181.5 C 396.043,181.44 396.376,181.107 396.5,180.5C 393.355,179.197 390.355,179.197 387.5,180.5C 386.5,180.5 385.5,180.5 384.5,180.5C 383.965,177.762 384.965,175.928 387.5,175C 391.546,174.887 395.546,175.387 399.5,176.5C 400.631,178.074 400.798,179.741 400,181.5C 398.127,183.709 395.96,185.542 393.5,187C 393.833,187.167 394.167,187.333 394.5,187.5C 398.674,184.912 403.007,182.579 407.5,180.5C 408.614,181.723 408.781,183.056 408,184.5C 404.739,187.216 401.572,190.049 398.5,193C 403.932,191.769 408.266,188.769 411.5,184C 412.448,183.517 413.448,183.351 414.5,183.5C 413.758,186.809 412.091,189.643 409.5,192C 405.837,195.082 401.67,197.249 397,198.5C 392.986,196.778 392.486,194.278 395.5,191C 392.28,191.679 389.113,192.845 386,194.5C 382.848,192.353 382.682,189.853 385.5,187C 388.7,184.901 392.033,183.067 395.5,181.5 Z"/></g>
<g><path style="opacity:1" fill="#d83232" d="M 419.5,187.5 C 424.547,187.337 429.547,187.671 434.5,188.5C 434.67,189.822 434.337,190.989 433.5,192C 431.722,192.704 429.888,193.204 428,193.5C 422.082,191.861 416.915,193.194 412.5,197.5C 413,197.833 413.5,198.167 414,198.5C 418.999,196.459 424.166,195.125 429.5,194.5C 429.762,195.978 429.429,197.311 428.5,198.5C 423.738,200.935 423.738,202.435 428.5,203C 428.167,203.333 427.833,203.667 427.5,204C 420.693,205.912 414.027,208.079 407.5,210.5C 407.286,208.856 407.62,207.356 408.5,206C 412.37,204.713 416.036,203.047 419.5,201C 416.54,201.32 413.54,201.32 410.5,201C 407.871,197.801 408.204,194.801 411.5,192C 414.099,190.205 416.766,188.705 419.5,187.5 Z"/></g>
<g><path style="opacity:1" fill="#ab0606" d="M 44.5,197.5 C 46.9892,197.298 49.3225,197.798 51.5,199C 54.6828,202.015 57.6828,205.182 60.5,208.5C 59.9984,209.521 59.3317,209.688 58.5,209C 55.465,205.63 52.1317,202.63 48.5,200C 46.6332,199.289 45.1332,199.789 44,201.5C 43.3333,203.5 43.3333,205.5 44,207.5C 46.4626,210.965 49.2959,214.131 52.5,217C 52,217.5 51.5,218 51,218.5C 46.5,214 42,209.5 37.5,205C 38.7487,203.176 39.9153,203.343 41,205.5C 41.0036,202.208 42.1703,199.542 44.5,197.5 Z"/></g>
<g><path style="opacity:1" fill="#930e1b" d="M 103.5,175.5 C 102.834,191.491 102.5,207.491 102.5,223.5C 101.834,217.009 101.5,210.342 101.5,203.5C 101.298,193.948 101.965,184.615 103.5,175.5 Z"/></g>
<g><path style="opacity:1" fill="#4d0f19" d="M 311.5,207.5 C 295.5,207.5 279.5,207.5 263.5,207.5C 271.78,205.984 280.28,205.318 289,205.5C 294.833,205.667 300.667,205.833 306.5,206C 308.382,206.198 310.048,206.698 311.5,207.5 Z"/></g>
<g><path style="opacity:1" fill="#ba0d24" d="M 255.5,207.5 C 258.167,207.5 260.833,207.5 263.5,207.5C 279.5,207.5 295.5,207.5 311.5,207.5C 320.537,207.755 329.537,208.422 338.5,209.5C 339.552,211.256 341.219,211.923 343.5,211.5C 372.856,215.284 400.189,224.618 425.5,239.5C 428.151,241.822 430.484,244.489 432.5,247.5C 433.167,247.167 433.833,246.833 434.5,246.5C 435.833,248.167 437.167,249.833 438.5,251.5C 434.587,256.504 429.92,257.837 424.5,255.5C 423.571,256.689 423.238,258.022 423.5,259.5C 426.247,259.187 428.914,259.52 431.5,260.5C 431.291,261.086 430.957,261.586 430.5,262C 425.5,262.833 420.5,263.667 415.5,264.5C 420.521,265.783 425.521,265.783 430.5,264.5C 431.774,265.359 431.608,266.026 430,266.5C 427.755,267.137 425.588,267.97 423.5,269C 416.555,268.291 409.555,267.791 402.5,267.5C 401.5,267.5 400.5,267.5 399.5,267.5C 397.721,265.656 395.388,264.99 392.5,265.5C 392.167,265.5 391.833,265.5 391.5,265.5C 389.365,263.631 386.698,262.964 383.5,263.5C 364.909,260.843 346.243,258.843 327.5,257.5C 314.517,256.167 301.184,255.501 287.5,255.5C 273.816,255.501 260.483,256.167 247.5,257.5C 236.721,257.295 226.055,257.961 215.5,259.5C 212.302,258.964 209.635,259.631 207.5,261.5C 206.5,261.5 205.5,261.5 204.5,261.5C 198.56,262.65 192.56,263.483 186.5,264C 185.944,264.383 185.611,264.883 185.5,265.5C 171.525,267.992 157.525,270.492 143.5,273C 139.179,273.499 134.846,273.666 130.5,273.5C 124.167,273.5 117.833,273.5 111.5,273.5C 109.5,273.5 107.5,273.5 105.5,273.5C 105.238,272.022 105.571,270.689 106.5,269.5C 135.954,242.028 170.287,224.028 209.5,215.5C 211.898,215.741 213.898,215.074 215.5,213.5C 216.167,213.5 216.833,213.5 217.5,213.5C 220.082,213.975 222.082,213.308 223.5,211.5C 230.113,210.398 236.78,209.732 243.5,209.5C 247.971,210.089 251.971,209.423 255.5,207.5 Z"/></g>
<g><path style="opacity:1" fill="#7d1c23" d="M 255.5,207.5 C 251.971,209.423 247.971,210.089 243.5,209.5C 247.21,207.864 251.21,207.198 255.5,207.5 Z"/></g>
<g><path style="opacity:1" fill="#5b1d23" d="M 338.5,209.5 C 340.698,209.12 342.365,209.787 343.5,211.5C 341.219,211.923 339.552,211.256 338.5,209.5 Z"/></g>
<g><path style="opacity:1" fill="#55151a" d="M 223.5,211.5 C 222.082,213.308 220.082,213.975 217.5,213.5C 219.102,211.926 221.102,211.259 223.5,211.5 Z"/></g>
<g><path style="opacity:1" fill="#ad0808" d="M 30.5,210.5 C 32.6547,210.372 34.6547,210.872 36.5,212C 39.6667,215.167 42.8333,218.333 46,221.5C 46.3089,223.513 45.6423,223.846 44,222.5C 42.7702,230.289 39.1035,231.956 33,227.5C 32.3333,225.5 32.3333,223.5 33,221.5C 34.3662,219.63 35.5328,217.63 36.5,215.5C 34.9563,213.554 32.9563,213.054 30.5,214C 28.3985,215.733 28.0652,217.733 29.5,220C 28.9747,220.692 28.3081,221.192 27.5,221.5C 26.3526,219.235 26.1859,216.902 27,214.5C 28.3756,213.295 29.5423,211.962 30.5,210.5 Z"/></g>
<g><path style="opacity:1" fill="#66181e" d="M 215.5,213.5 C 213.898,215.074 211.898,215.741 209.5,215.5C 210.99,213.72 212.99,213.054 215.5,213.5 Z"/></g>
<g><path style="opacity:1" fill="#d52a2a" d="M 37.5,217.5 C 40.2856,217.956 41.619,219.623 41.5,222.5C 41.4863,226.609 39.4863,228.109 35.5,227C 34.9186,226.107 34.5852,225.107 34.5,224C 35.2594,221.735 36.2594,219.568 37.5,217.5 Z"/></g>
<g><path style="opacity:1" fill="#ad0808" d="M 21.5,221.5 C 27.163,226.33 32.3296,231.663 37,237.5C 38.3024,245.362 35.1357,248.695 27.5,247.5C 35.8931,245.4 37.3931,241.067 32,234.5C 31.3901,241.761 27.5567,244.261 20.5,242C 17.9598,239.795 15.7932,237.295 14,234.5C 12.8775,227.95 15.7108,224.784 22.5,225C 20.6269,224.047 20.2935,222.88 21.5,221.5 Z"/></g>
<g><path style="opacity:1" fill="#d62b2a" d="M 18.5,227.5 C 28.1058,227.254 31.1058,231.421 27.5,240C 21.2985,240.796 17.6318,238.13 16.5,232C 16.7586,230.213 17.4253,228.713 18.5,227.5 Z"/></g>
<g><path style="opacity:1" fill="#ad0808" d="M 547.5,228.5 C 553.163,233.33 558.33,238.663 563,244.5C 564.302,252.362 561.136,255.695 553.5,254.5C 561.893,252.4 563.393,248.067 558,241.5C 557.39,248.761 553.557,251.261 546.5,249C 543.96,246.795 541.793,244.295 540,241.5C 538.877,234.95 541.711,231.784 548.5,232C 546.627,231.047 546.294,229.88 547.5,228.5 Z"/></g>
<g><path style="opacity:1" fill="#ac0706" d="M 6.5,234.5 C 10.1569,234.974 10.3236,236.307 7,238.5C 6.33333,239.833 6.33333,241.167 7,242.5C 9.79693,246.299 12.9636,249.799 16.5,253C 16,253.5 15.5,254 15,254.5C 10.5,250 6,245.5 1.5,241C 2.25286,239.513 3.0862,239.346 4,240.5C 4.57251,238.359 5.40585,236.359 6.5,234.5 Z"/></g>
<g><path style="opacity:1" fill="#d62b2a" d="M 544.5,234.5 C 554.106,234.254 557.106,238.421 553.5,247C 547.298,247.796 543.632,245.13 542.5,239C 542.759,237.213 543.425,235.713 544.5,234.5 Z"/></g>
<g><path style="opacity:1" fill="#ab0606" d="M 531.5,245.5 C 533.989,245.298 536.323,245.798 538.5,247C 541.683,250.015 544.683,253.182 547.5,256.5C 546.998,257.521 546.332,257.688 545.5,257C 542.465,253.63 539.132,250.63 535.5,248C 533.633,247.289 532.133,247.789 531,249.5C 530.333,251.5 530.333,253.5 531,255.5C 533.463,258.965 536.296,262.131 539.5,265C 539,265.5 538.5,266 538,266.5C 533.5,262 529,257.5 524.5,253C 525.749,251.176 526.915,251.343 528,253.5C 528.004,250.208 529.17,247.542 531.5,245.5 Z"/></g>
<g><path style="opacity:1" fill="#b30f23" d="M 425.5,239.5 C 440.654,247.383 454.321,257.383 466.5,269.5C 467.429,270.689 467.762,272.022 467.5,273.5C 455.495,273.667 443.495,273.5 431.5,273C 422.223,271.24 412.89,269.907 403.5,269C 402.944,268.617 402.611,268.117 402.5,267.5C 409.555,267.791 416.555,268.291 423.5,269C 425.588,267.97 427.755,267.137 430,266.5C 431.608,266.026 431.774,265.359 430.5,264.5C 425.521,265.783 420.521,265.783 415.5,264.5C 420.5,263.667 425.5,262.833 430.5,262C 430.957,261.586 431.291,261.086 431.5,260.5C 428.914,259.52 426.247,259.187 423.5,259.5C 423.238,258.022 423.571,256.689 424.5,255.5C 429.92,257.837 434.587,256.504 438.5,251.5C 437.167,249.833 435.833,248.167 434.5,246.5C 433.833,246.833 433.167,247.167 432.5,247.5C 430.484,244.489 428.151,241.822 425.5,239.5 Z"/></g>
<g><path style="opacity:1" fill="#5c0d19" d="M 469.5,239.5 C 469.167,243.5 468.833,247.5 468.5,251.5C 466.517,251.843 465.183,251.176 464.5,249.5C 465.5,249.5 466.5,249.5 467.5,249.5C 467.549,245.922 468.215,242.589 469.5,239.5 Z"/></g>
<g><path style="opacity:1" fill="#401216" d="M 327.5,257.5 C 300.827,256.29 274.16,256.29 247.5,257.5C 260.483,256.167 273.816,255.501 287.5,255.5C 301.184,255.501 314.517,256.167 327.5,257.5 Z"/></g>
<g><path style="opacity:1" fill="#7e1321" d="M 215.5,259.5 C 213.365,261.369 210.698,262.036 207.5,261.5C 209.635,259.631 212.302,258.964 215.5,259.5 Z"/></g>
<g><path style="opacity:1" fill="#ad0808" d="M 517.5,257.5 C 519.655,257.372 521.655,257.872 523.5,259C 526.667,262.167 529.833,265.333 533,268.5C 533.309,270.513 532.642,270.846 531,269.5C 529.77,277.289 526.104,278.956 520,274.5C 519.333,272.5 519.333,270.5 520,268.5C 521.366,266.63 522.533,264.63 523.5,262.5C 521.956,260.554 519.956,260.054 517.5,261C 515.398,262.733 515.065,264.733 516.5,267C 515.975,267.692 515.308,268.192 514.5,268.5C 513.353,266.235 513.186,263.902 514,261.5C 515.376,260.295 516.542,258.962 517.5,257.5 Z"/></g>
<g><path style="opacity:1" fill="#2e0e0e" d="M 204.5,261.5 C 203.158,262.793 201.491,263.626 199.5,264C 194.844,264.665 190.177,265.165 185.5,265.5C 185.611,264.883 185.944,264.383 186.5,264C 192.56,263.483 198.56,262.65 204.5,261.5 Z"/></g>
<g><path style="opacity:1" fill="#860f22" d="M 383.5,263.5 C 386.698,262.964 389.365,263.631 391.5,265.5C 388.302,266.036 385.635,265.369 383.5,263.5 Z"/></g>
<g><path style="opacity:1" fill="#d52a2a" d="M 524.5,264.5 C 527.286,264.956 528.619,266.623 528.5,269.5C 528.486,273.609 526.486,275.109 522.5,274C 521.919,273.107 521.585,272.107 521.5,271C 522.259,268.735 523.259,266.568 524.5,264.5 Z"/></g>
<g><path style="opacity:1" fill="#68101b" d="M 392.5,265.5 C 395.388,264.99 397.721,265.656 399.5,267.5C 397.473,267.662 395.473,267.495 393.5,267C 392.944,266.617 392.611,266.117 392.5,265.5 Z"/></g>
<g><path style="opacity:1" fill="#312a23" d="M 338.5,271.5 C 332.008,271.006 325.675,270.339 319.5,269.5C 323.524,269.497 327.524,269.164 331.5,268.5C 334.259,268.757 336.593,269.757 338.5,271.5 Z"/></g>
<g><path style="opacity:1" fill="#fcdbb7" d="M 319.5,269.5 C 325.675,270.339 332.008,271.006 338.5,271.5C 340.527,271.338 342.527,271.505 344.5,272C 344.167,272.333 343.833,272.667 343.5,273C 335.627,275.726 328.294,279.393 321.5,284C 323.348,286.093 325.681,287.426 328.5,288C 333.558,288.661 338.558,288.328 343.5,287C 355.508,282.496 367.841,279.329 380.5,277.5C 394.086,280.298 407.752,282.631 421.5,284.5C 419.64,345.374 396.307,396.208 351.5,437C 308.631,472.539 264.964,473.539 220.5,440C 178.371,404.424 153.704,359.091 146.5,304C 146.954,297.81 147.621,291.643 148.5,285.5C 162.201,283.093 175.867,280.427 189.5,277.5C 201.567,280.684 213.567,284.184 225.5,288C 231.705,288.984 237.705,288.317 243.5,286C 244.517,284.951 244.684,283.784 244,282.5C 237.149,279.33 230.316,276.163 223.5,273C 234.061,271.127 244.728,270.127 255.5,270C 276.831,269.5 298.164,269.333 319.5,269.5 Z"/></g>
<g><path style="opacity:1" fill="#ad0808" d="M 507.5,268.5 C 513.163,273.33 518.33,278.663 523,284.5C 524.302,292.362 521.136,295.695 513.5,294.5C 521.893,292.4 523.393,288.067 518,281.5C 517.39,288.761 513.557,291.261 506.5,289C 503.96,286.795 501.793,284.295 500,281.5C 498.877,274.95 501.711,271.784 508.5,272C 506.627,271.047 506.294,269.88 507.5,268.5 Z"/></g>
<g><path style="opacity:1" fill="#340d11" d="M 111.5,273.5 C 117.833,273.5 124.167,273.5 130.5,273.5C 127.135,275.039 123.469,275.706 119.5,275.5C 116.41,275.478 113.743,274.812 111.5,273.5 Z"/></g>
<g><path style="opacity:1" fill="#d62b2a" d="M 504.5,274.5 C 514.106,274.254 517.106,278.421 513.5,287C 507.298,287.796 503.632,285.13 502.5,279C 502.759,277.213 503.425,275.713 504.5,274.5 Z"/></g>
<g><path style="opacity:1" fill="#ac0706" d="M 493.5,282.5 C 497.157,282.974 497.324,284.307 494,286.5C 493.333,287.833 493.333,289.167 494,290.5C 496.797,294.299 499.964,297.799 503.5,301C 503,301.5 502.5,302 502,302.5C 497.5,298 493,293.5 488.5,289C 489.253,287.513 490.086,287.346 491,288.5C 491.573,286.359 492.406,284.359 493.5,282.5 Z"/></g>
<g><path style="opacity:1" fill="#050404" d="M 229.5,315.5 C 226.213,314.736 223.546,312.903 221.5,310C 220.833,309.333 220.167,309.333 219.5,310C 223.619,320.603 220.952,329.103 211.5,335.5C 206.237,337.561 200.904,337.894 195.5,336.5C 184.499,331.834 180.333,323.5 183,311.5C 184.358,309.141 185.358,306.807 186,304.5C 181.512,306.822 178.012,310.155 175.5,314.5C 174.311,315.429 172.978,315.762 171.5,315.5C 170.645,314.469 169.978,313.303 169.5,312C 172.154,305.346 176.82,300.68 183.5,298C 201.665,292.431 217.498,296.264 231,309.5C 231.748,311.84 231.248,313.84 229.5,315.5 Z"/></g>
<g><path style="opacity:1" fill="#060505" d="M 399.5,315.5 C 398.448,315.649 397.448,315.483 396.5,315C 393.617,310.45 389.784,306.95 385,304.5C 386.512,307.209 387.845,310.209 389,313.5C 390.131,324.583 385.631,332.25 375.5,336.5C 371.566,337.36 367.566,337.693 363.5,337.5C 351.408,331.82 347.408,322.653 351.5,310C 348.899,310.401 346.899,311.901 345.5,314.5C 344.675,315.386 343.675,315.719 342.5,315.5C 340.978,314.809 339.978,313.642 339.5,312C 340.376,309.121 342.042,306.787 344.5,305C 359.168,294.371 374.835,292.704 391.5,300C 396.515,302.846 399.848,307.012 401.5,312.5C 401.547,314.038 400.88,315.038 399.5,315.5 Z"/></g>
<g><path style="opacity:1" fill="#fbdab6" d="M 449.5,298.5 C 453.302,299.779 456.469,302.112 459,305.5C 470.334,324.996 468.5,343.163 453.5,360C 441.733,369.868 428.733,372.535 414.5,368C 421.712,349.538 427.379,330.705 431.5,311.5C 433.889,310.82 436.222,309.986 438.5,309C 442.062,305.268 445.729,301.768 449.5,298.5 Z"/></g>
<g><path style="opacity:1" fill="#ac0707" d="M 481.5,294.5 C 485.819,293.799 489.486,294.966 492.5,298C 489.5,301 486.5,304 483.5,307C 486.032,309.415 489.032,310.081 492.5,309C 494.442,307.028 494.776,304.861 493.5,302.5C 494.325,301.614 495.325,301.281 496.5,301.5C 497.314,309.183 493.981,312.683 486.5,312C 480.665,309.206 477.831,304.706 478,298.5C 478.69,296.65 479.856,295.316 481.5,294.5 Z"/></g>
<g><path style="opacity:1" fill="#d42929" d="M 481.5,296.5 C 483.527,296.338 485.527,296.505 487.5,297C 487.957,297.414 488.291,297.914 488.5,298.5C 486.517,300.984 484.35,303.317 482,305.5C 478.878,302.644 478.711,299.644 481.5,296.5 Z"/></g>
<g><path style="opacity:1" fill="#fadab6" d="M 113.5,298.5 C 121.488,300.936 129.155,303.936 136.5,307.5C 139.83,328.486 145.497,348.82 153.5,368.5C 129.792,373.896 112.959,365.563 103,343.5C 97.5414,326.338 101.041,311.338 113.5,298.5 Z"/></g>
<g><path style="opacity:1" fill="#ad0808" d="M 25.5,305.5 C 31.163,310.33 36.3296,315.663 41,321.5C 42.3024,329.362 39.1357,332.695 31.5,331.5C 39.8931,329.4 41.3931,325.067 36,318.5C 35.3901,325.761 31.5567,328.261 24.5,326C 21.9598,323.795 19.7932,321.295 18,318.5C 16.8775,311.95 19.7108,308.784 26.5,309C 24.6269,308.047 24.2935,306.88 25.5,305.5 Z"/></g>
<g><path style="opacity:1" fill="#f1f1f0" d="M 195.5,336.5 C 181.016,337.517 173.016,330.517 171.5,315.5C 172.978,315.762 174.311,315.429 175.5,314.5C 178.012,310.155 181.512,306.822 186,304.5C 185.358,306.807 184.358,309.141 183,311.5C 180.333,323.5 184.499,331.834 195.5,336.5 Z"/></g>
<g><path style="opacity:1" fill="#d62b2a" d="M 22.5,311.5 C 32.1058,311.254 35.1058,315.421 31.5,324C 25.2985,324.796 21.6318,322.13 20.5,316C 20.7586,314.213 21.4253,312.713 22.5,311.5 Z"/></g>
<g><path style="opacity:1" fill="#f4f4f1" d="M 229.5,315.5 C 229.092,323.814 225.426,330.314 218.5,335C 216.19,335.497 213.857,335.663 211.5,335.5C 220.952,329.103 223.619,320.603 219.5,310C 220.167,309.333 220.833,309.333 221.5,310C 223.546,312.903 226.213,314.736 229.5,315.5 Z"/></g>
<g><path style="opacity:1" fill="#f7f7f5" d="M 399.5,315.5 C 399.547,322.342 397.047,328.009 392,332.5C 391.517,333.448 391.351,334.448 391.5,335.5C 387.407,335.522 383.407,336.189 379.5,337.5C 377.955,337.489 376.622,337.156 375.5,336.5C 385.631,332.25 390.131,324.583 389,313.5C 387.845,310.209 386.512,307.209 385,304.5C 389.784,306.95 393.617,310.45 396.5,315C 397.448,315.483 398.448,315.649 399.5,315.5 Z"/></g>
<g><path style="opacity:1" fill="#f6f5f1" d="M 363.5,337.5 C 349.673,336.673 342.673,329.34 342.5,315.5C 343.675,315.719 344.675,315.386 345.5,314.5C 346.899,311.901 348.899,310.401 351.5,310C 347.408,322.653 351.408,331.82 363.5,337.5 Z"/></g>
<g><path style="opacity:1" fill="#ab0606" d="M 9.5,321.5 C 11.9892,321.298 14.3225,321.798 16.5,323C 19.6828,326.015 22.6828,329.182 25.5,332.5C 24.9984,333.521 24.3317,333.688 23.5,333C 20.465,329.63 17.1317,326.63 13.5,324C 11.6332,323.289 10.1332,323.789 9,325.5C 8.33333,327.5 8.33333,329.5 9,331.5C 11.4626,334.965 14.2959,338.131 17.5,341C 17,341.5 16.5,342 16,342.5C 11.5,338 7,333.5 2.5,329C 3.74866,327.176 4.91533,327.343 6,329.5C 6.00363,326.208 7.1703,323.542 9.5,321.5 Z"/></g>
<g><path style="opacity:1" fill="#bb1615" d="M -0.5,334.5 C 4.43974,337.77 8.77307,341.77 12.5,346.5C 11.7261,347.711 10.8928,347.711 10,346.5C 9.14207,353.672 5.64207,355.672 -0.5,352.5C -0.5,346.5 -0.5,340.5 -0.5,334.5 Z"/></g>
<g><path style="opacity:1" fill="#0f0a0a" d="M 276.5,346.5 C 283.251,345.295 289.085,346.962 294,351.5C 294.915,353.92 294.082,355.253 291.5,355.5C 288.462,354.063 285.296,353.063 282,352.5C 279.444,352.363 277.277,353.196 275.5,355C 273.833,355.667 272.167,355.667 270.5,355C 269.483,353.951 269.316,352.784 270,351.5C 271.965,349.45 274.132,347.783 276.5,346.5 Z"/></g>
<g><path style="opacity:1" fill="#b61916" d="M 90.5,324.5 C 89.7248,334.62 91.3915,344.287 95.5,353.5C 88.8064,354.716 83.9731,352.049 81,345.5C 80.0242,338.973 82.8576,335.64 89.5,335.5C 89.185,331.629 89.5184,327.962 90.5,324.5 Z"/></g>
<g><path style="opacity:1" fill="#ad0808" d="M 512.5,352.5 C 518.163,357.33 523.33,362.663 528,368.5C 529.302,376.362 526.136,379.695 518.5,378.5C 526.893,376.4 528.393,372.067 523,365.5C 522.39,372.761 518.557,375.261 511.5,373C 508.96,370.795 506.793,368.295 505,365.5C 503.877,358.95 506.711,355.784 513.5,356C 511.627,355.047 511.294,353.88 512.5,352.5 Z"/></g>
<g><path style="opacity:1" fill="#ab0606" d="M 71.5,348.5 C 73.9892,348.298 76.3225,348.798 78.5,350C 81.6828,353.015 84.6828,356.182 87.5,359.5C 86.9984,360.521 86.3317,360.688 85.5,360C 82.465,356.63 79.1317,353.63 75.5,351C 73.6332,350.289 72.1332,350.789 71,352.5C 70.3333,354.5 70.3333,356.5 71,358.5C 73.4626,361.965 76.2959,365.131 79.5,368C 79,368.5 78.5,369 78,369.5C 71.6519,363.319 65.4852,356.986 59.5,350.5C 60.0016,349.479 60.6683,349.312 61.5,350C 63.6667,352.167 65.8333,354.333 68,356.5C 68.0036,353.208 69.1703,350.542 71.5,348.5 Z"/></g>
<g><path style="opacity:1" fill="#d62b2a" d="M 509.5,358.5 C 519.106,358.254 522.106,362.421 518.5,371C 512.298,371.796 508.632,369.13 507.5,363C 507.759,361.213 508.425,359.713 509.5,358.5 Z"/></g>
<g><path style="opacity:1" fill="#ab0606" d="M 54.5,358.5 C 56.3936,359.048 58.0603,360.048 59.5,361.5C 60.5,360.833 61.5,360.167 62.5,359.5C 62.8333,359.833 63.1667,360.167 63.5,360.5C 62.1666,361.62 61.6666,362.953 62,364.5C 64.8333,367.333 67.6667,370.167 70.5,373C 72.0468,373.333 73.3801,372.833 74.5,371.5C 75.5827,372.365 75.7494,373.365 75,374.5C 73.2739,375.576 71.4406,375.743 69.5,375C 66.318,371.651 62.9846,368.484 59.5,365.5C 55.5,368.167 54.8333,367.5 57.5,363.5C 56.0476,362.06 55.0476,360.394 54.5,358.5 Z"/></g>
<g><path style="opacity:1" fill="#ab0606" d="M 496.5,369.5 C 498.989,369.298 501.323,369.798 503.5,371C 506.683,374.015 509.683,377.182 512.5,380.5C 511.998,381.521 511.332,381.688 510.5,381C 507.465,377.63 504.132,374.63 500.5,372C 498.633,371.289 497.133,371.789 496,373.5C 495.333,375.5 495.333,377.5 496,379.5C 498.463,382.965 501.296,386.131 504.5,389C 504,389.5 503.5,390 503,390.5C 498.5,386 494,381.5 489.5,377C 490.749,375.176 491.915,375.343 493,377.5C 493.004,374.208 494.17,371.542 496.5,369.5 Z"/></g>
<g><path style="opacity:1" fill="#ae0909" d="M 48.5,370.5 C 53.3514,369.784 57.5181,371.117 61,374.5C 64.4333,379.133 64.2667,383.633 60.5,388C 58.3046,389.373 55.9712,389.706 53.5,389C 47.6646,386.206 44.8313,381.706 45,375.5C 46.1764,373.804 47.343,372.138 48.5,370.5 Z"/></g>
<g><path style="opacity:1" fill="#d62a2a" d="M 49.5,372.5 C 55.7716,372.435 59.7716,375.435 61.5,381.5C 60.1823,386.078 57.1823,387.578 52.5,386C 47.1994,382.364 46.1994,377.864 49.5,372.5 Z"/></g>
<g><path style="opacity:1" fill="#2c0905" d="M 414.5,379.5 C 421.167,379.5 427.833,379.5 434.5,379.5C 427.833,382.167 421.167,382.167 414.5,379.5 Z"/></g>
<g><path style="opacity:1" fill="#451615" d="M 130.5,379.5 C 134.869,379.467 139.202,379.8 143.5,380.5C 141.866,381.161 140.033,381.494 138,381.5C 135.134,381.7 132.634,381.033 130.5,379.5 Z"/></g>
<g><path style="opacity:1" fill="#ac0706" d="M 38.5,381.5 C 42.1569,381.974 42.3236,383.307 39,385.5C 38.3333,386.833 38.3333,388.167 39,389.5C 41.7969,393.299 44.9636,396.799 48.5,400C 48,400.5 47.5,401 47,401.5C 42.5,397 38,392.5 33.5,388C 34.2529,386.513 35.0862,386.346 36,387.5C 36.5725,385.359 37.4058,383.359 38.5,381.5 Z"/></g>
<g><path style="opacity:1" fill="#ad0808" d="M 482.5,381.5 C 484.655,381.372 486.655,381.872 488.5,383C 491.667,386.167 494.833,389.333 498,392.5C 498.309,394.513 497.642,394.846 496,393.5C 494.77,401.289 491.104,402.956 485,398.5C 484.333,396.5 484.333,394.5 485,392.5C 486.366,390.63 487.533,388.63 488.5,386.5C 486.956,384.554 484.956,384.054 482.5,385C 480.398,386.733 480.065,388.733 481.5,391C 480.975,391.692 480.308,392.192 479.5,392.5C 478.353,390.235 478.186,387.902 479,385.5C 480.376,384.295 481.542,382.962 482.5,381.5 Z"/></g>
<g><path style="opacity:1" fill="#d52a2a" d="M 489.5,388.5 C 492.286,388.956 493.619,390.623 493.5,393.5C 493.486,397.609 491.486,399.109 487.5,398C 486.919,397.107 486.585,396.107 486.5,395C 487.259,392.735 488.259,390.568 489.5,388.5 Z"/></g>
<g><path style="opacity:1" fill="#ad0808" d="M 472.5,392.5 C 478.163,397.33 483.33,402.663 488,408.5C 489.302,416.362 486.136,419.695 478.5,418.5C 486.893,416.4 488.393,412.067 483,405.5C 482.39,412.761 478.557,415.261 471.5,413C 468.96,410.795 466.793,408.295 465,405.5C 463.877,398.95 466.711,395.784 473.5,396C 471.627,395.047 471.294,393.88 472.5,392.5 Z"/></g>
<g><path style="opacity:1" fill="#ad0808" d="M 115.5,394.5 C 121.163,399.33 126.33,404.663 131,410.5C 132.302,418.362 129.136,421.695 121.5,420.5C 129.893,418.4 131.393,414.067 126,407.5C 125.39,414.761 121.557,417.261 114.5,415C 111.96,412.795 109.793,410.295 108,407.5C 106.877,400.95 109.711,397.784 116.5,398C 114.627,397.047 114.294,395.88 115.5,394.5 Z"/></g>
<g><path style="opacity:1" fill="#d62b2a" d="M 469.5,398.5 C 479.106,398.254 482.106,402.421 478.5,411C 472.298,411.796 468.632,409.13 467.5,403C 467.759,401.213 468.425,399.713 469.5,398.5 Z"/></g>
<g><path style="opacity:1" fill="#ae0909" d="M 27.5,393.5 C 33.6802,393.826 38.1802,396.826 41,402.5C 41.7804,408.726 38.9471,411.893 32.5,412C 34.6574,413.085 34.8241,414.251 33,415.5C 26.6519,409.319 20.4852,402.986 14.5,396.5C 15.0016,395.479 15.6683,395.312 16.5,396C 18.6667,398.167 20.8333,400.333 23,402.5C 22.6451,398.412 24.1451,395.412 27.5,393.5 Z"/></g>
<g><path style="opacity:1" fill="#d72b2b" d="M 27.5,396.5 C 34.9828,396.481 38.4828,400.148 38,407.5C 31.2695,411.052 27.1029,409.052 25.5,401.5C 25.4365,399.486 26.1032,397.819 27.5,396.5 Z"/></g>
<g><path style="opacity:1" fill="#d62b2a" d="M 112.5,400.5 C 122.106,400.254 125.106,404.421 121.5,413C 115.298,413.796 111.632,411.13 110.5,405C 110.759,403.213 111.425,401.713 112.5,400.5 Z"/></g>
<g><path style="opacity:1" fill="#ab0606" d="M 567.5,399.5 C 567.5,400.5 567.5,401.5 567.5,402.5C 565.738,400.583 563.571,399.25 561,398.5C 558.472,399.197 557.306,400.864 557.5,403.5C 559.064,408.585 562.064,412.751 566.5,416C 566,416.5 565.5,417 565,417.5C 558.652,411.319 552.485,404.986 546.5,398.5C 547.002,397.479 547.668,397.312 548.5,398C 550.667,400.167 552.833,402.333 555,404.5C 556.327,395.994 560.494,394.327 567.5,399.5 Z"/></g>
<g><path style="opacity:1" fill="#ac0706" d="M 458.5,406.5 C 462.157,406.974 462.324,408.307 459,410.5C 458.333,411.833 458.333,413.167 459,414.5C 461.797,418.299 464.964,421.799 468.5,425C 468,425.5 467.5,426 467,426.5C 462.5,422 458,417.5 453.5,413C 454.253,411.513 455.086,411.346 456,412.5C 456.573,410.359 457.406,408.359 458.5,406.5 Z"/></g>
<g><path style="opacity:1" fill="#ab0606" d="M 540.5,405.5 C 542.394,406.048 544.06,407.048 545.5,408.5C 546.5,407.833 547.5,407.167 548.5,406.5C 548.833,406.833 549.167,407.167 549.5,407.5C 548.167,408.62 547.667,409.953 548,411.5C 550.833,414.333 553.667,417.167 556.5,420C 558.047,420.333 559.38,419.833 560.5,418.5C 561.583,419.365 561.749,420.365 561,421.5C 559.274,422.576 557.441,422.743 555.5,422C 552.318,418.651 548.985,415.484 545.5,412.5C 541.5,415.167 540.833,414.5 543.5,410.5C 542.048,409.06 541.048,407.394 540.5,405.5 Z"/></g>
<g><path style="opacity:1" fill="#ab0606" d="M 98.5,410.5 C 100.989,410.298 103.323,410.798 105.5,412C 108.683,415.015 111.683,418.182 114.5,421.5C 113.998,422.521 113.332,422.688 112.5,422C 109.465,418.63 106.132,415.63 102.5,413C 100.633,412.289 99.1332,412.789 98,414.5C 97.3333,416.5 97.3333,418.5 98,420.5C 100.463,423.965 103.296,427.131 106.5,430C 106,430.5 105.5,431 105,431.5C 100.5,427 96,422.5 91.5,418C 92.7487,416.176 93.9153,416.343 95,418.5C 95.0036,415.208 96.1703,412.542 98.5,410.5 Z"/></g>
<g><path style="opacity:1" fill="#0c0708" d="M 265.5,408.5 C 267.199,408.34 268.866,408.506 270.5,409C 274.69,415.06 280.357,417.06 287.5,415C 291.606,413.2 295.439,411.034 299,408.5C 301.601,408.601 303.101,409.935 303.5,412.5C 297.732,422.545 289.066,426.378 277.5,424C 271.102,422.088 266.436,418.254 263.5,412.5C 263.752,410.927 264.418,409.594 265.5,408.5 Z"/></g>
<g><path style="opacity:1" fill="#ae0909" d="M 535.5,418.5 C 540.351,417.784 544.518,419.117 548,422.5C 551.433,427.133 551.267,431.633 547.5,436C 545.305,437.373 542.971,437.706 540.5,437C 534.665,434.206 531.831,429.706 532,423.5C 533.176,421.804 534.343,420.138 535.5,418.5 Z"/></g>
<g><path style="opacity:1" fill="#a30d0c" d="M 181.5,415.5 C 186.247,420.847 190.913,426.18 195.5,431.5C 194.883,431.611 194.383,431.944 194,432.5C 189.5,428 185,423.5 180.5,419C 181.337,417.989 181.67,416.822 181.5,415.5 Z"/></g>
<g><path style="opacity:1" fill="#d62a2a" d="M 536.5,420.5 C 542.772,420.435 546.772,423.435 548.5,429.5C 547.182,434.078 544.182,435.578 539.5,434C 534.199,430.364 533.199,425.864 536.5,420.5 Z"/></g>
<g><path style="opacity:1" fill="#ac0707" d="M 446.5,418.5 C 450.819,417.799 454.486,418.966 457.5,422C 454.5,425 451.5,428 448.5,431C 451.032,433.415 454.032,434.081 457.5,433C 459.442,431.028 459.776,428.861 458.5,426.5C 459.325,425.614 460.325,425.281 461.5,425.5C 462.314,433.183 458.981,436.683 451.5,436C 445.665,433.206 442.831,428.706 443,422.5C 443.69,420.65 444.856,419.316 446.5,418.5 Z"/></g>
<g><path style="opacity:1" fill="#d42929" d="M 446.5,420.5 C 448.527,420.338 450.527,420.505 452.5,421C 452.957,421.414 453.291,421.914 453.5,422.5C 451.517,424.984 449.35,427.317 447,429.5C 443.878,426.644 443.711,423.644 446.5,420.5 Z"/></g>
<g><path style="opacity:1" fill="#ad0808" d="M 85.5,423.5 C 87.6547,423.372 89.6547,423.872 91.5,425C 94.6667,428.167 97.8333,431.333 101,434.5C 101.309,436.513 100.642,436.846 99,435.5C 97.7702,443.289 94.1035,444.956 88,440.5C 87.3333,438.5 87.3333,436.5 88,434.5C 89.3662,432.63 90.5328,430.63 91.5,428.5C 89.9563,426.554 87.9563,426.054 85.5,427C 83.3985,428.733 83.0652,430.733 84.5,433C 83.9747,433.692 83.3081,434.192 82.5,434.5C 81.3526,432.235 81.1859,429.902 82,427.5C 83.3756,426.295 84.5423,424.962 85.5,423.5 Z"/></g>
<g><path style="opacity:1" fill="#ac0706" d="M 525.5,428.5 C 529.157,428.974 529.324,430.307 526,432.5C 525.333,433.833 525.333,435.167 526,436.5C 528.797,440.299 531.964,443.799 535.5,447C 535,447.5 534.5,448 534,448.5C 529.5,444 525,439.5 520.5,435C 521.253,433.513 522.086,433.346 523,434.5C 523.573,432.359 524.406,430.359 525.5,428.5 Z"/></g>
<g><path style="opacity:1" fill="#d52a2a" d="M 92.5,430.5 C 95.2856,430.956 96.619,432.623 96.5,435.5C 96.4863,439.609 94.4863,441.109 90.5,440C 89.9186,439.107 89.5852,438.107 89.5,437C 90.2594,434.735 91.2594,432.568 92.5,430.5 Z"/></g>
<g><path style="opacity:1" fill="#ac0707" d="M 173.5,425.5 C 177.819,424.799 181.486,425.966 184.5,429C 181.5,432 178.5,435 175.5,438C 178.032,440.415 181.032,441.081 184.5,440C 186.442,438.028 186.776,435.861 185.5,433.5C 186.325,432.614 187.325,432.281 188.5,432.5C 189.314,440.183 185.981,443.683 178.5,443C 172.665,440.206 169.831,435.706 170,429.5C 170.69,427.65 171.856,426.316 173.5,425.5 Z"/></g>
<g><path style="opacity:1" fill="#d42929" d="M 173.5,427.5 C 175.527,427.338 177.527,427.505 179.5,428C 179.957,428.414 180.291,428.914 180.5,429.5C 178.517,431.984 176.35,434.317 174,436.5C 170.878,433.644 170.711,430.644 173.5,427.5 Z"/></g>
<g><path style="opacity:1" fill="#ad0808" d="M 75.5,434.5 C 81.163,439.33 86.3296,444.663 91,450.5C 92.3024,458.362 89.1357,461.695 81.5,460.5C 89.8931,458.4 91.3931,454.067 86,447.5C 85.3901,454.761 81.5567,457.261 74.5,455C 71.9598,452.795 69.7932,450.295 68,447.5C 66.8775,440.95 69.7108,437.784 76.5,438C 74.6269,437.047 74.2935,435.88 75.5,434.5 Z"/></g>
<g><path style="opacity:1" fill="#d62b2a" d="M 72.5,440.5 C 82.1058,440.254 85.1058,444.421 81.5,453C 75.2985,453.796 71.6318,451.13 70.5,445C 70.7586,443.213 71.4253,441.713 72.5,440.5 Z"/></g>
<g><path style="opacity:1" fill="#ab0606" d="M 434.5,431.5 C 436.989,431.298 439.323,431.798 441.5,433C 444.683,436.015 447.683,439.182 450.5,442.5C 449.998,443.521 449.332,443.688 448.5,443C 445.465,439.63 442.132,436.63 438.5,434C 436.633,433.289 435.133,433.789 434,435.5C 433.333,437.5 433.333,439.5 434,441.5C 436.463,444.965 439.296,448.131 442.5,451C 442,451.5 441.5,452 441,452.5C 434.652,446.319 428.485,439.986 422.5,433.5C 423.002,432.479 423.668,432.312 424.5,433C 426.667,435.167 428.833,437.333 431,439.5C 431.004,436.208 432.17,433.542 434.5,431.5 Z"/></g>
<g><path style="opacity:1" fill="#ab0606" d="M 416.5,440.5 C 418.394,441.048 420.06,442.048 421.5,443.5C 422.5,442.833 423.5,442.167 424.5,441.5C 424.833,441.833 425.167,442.167 425.5,442.5C 424.167,443.62 423.667,444.953 424,446.5C 426.833,449.333 429.667,452.167 432.5,455C 434.047,455.333 435.38,454.833 436.5,453.5C 437.583,454.365 437.749,455.365 437,456.5C 435.274,457.576 433.441,457.743 431.5,457C 428.318,453.651 424.985,450.484 421.5,447.5C 417.5,450.167 416.833,449.5 419.5,445.5C 418.048,444.06 417.048,442.394 416.5,440.5 Z"/></g>
<g><path style="opacity:1" fill="#ab0606" d="M 160.5,437.5 C 162.989,437.298 165.323,437.798 167.5,439C 170.683,442.015 173.683,445.182 176.5,448.5C 175.998,449.521 175.332,449.688 174.5,449C 171.465,445.63 168.132,442.63 164.5,440C 162.633,439.289 161.133,439.789 160,441.5C 159.333,443.5 159.333,445.5 160,447.5C 162.463,450.965 165.296,454.131 168.5,457C 168,457.5 167.5,458 167,458.5C 160.652,452.319 154.485,445.986 148.5,439.5C 149.002,438.479 149.668,438.312 150.5,439C 152.667,441.167 154.833,443.333 157,445.5C 157.004,442.208 158.17,439.542 160.5,437.5 Z"/></g>
<g><path style="opacity:1" fill="#ac0706" d="M 61.5,447.5 C 65.1569,447.974 65.3236,449.307 62,451.5C 61.3333,452.833 61.3333,454.167 62,455.5C 64.7969,459.299 67.9636,462.799 71.5,466C 71,466.5 70.5,467 70,467.5C 65.5,463 61,458.5 56.5,454C 57.2529,452.513 58.0862,452.346 59,453.5C 59.5725,451.359 60.4058,449.359 61.5,447.5 Z"/></g>
<g><path style="opacity:1" fill="#ae0909" d="M 514.5,440.5 C 520.68,440.826 525.18,443.826 528,449.5C 528.78,455.726 525.947,458.893 519.5,459C 521.657,460.085 521.824,461.251 520,462.5C 513.652,456.319 507.485,449.986 501.5,443.5C 502.002,442.479 502.668,442.312 503.5,443C 505.667,445.167 507.833,447.333 510,449.5C 509.645,445.412 511.145,442.412 514.5,440.5 Z"/></g>
<g><path style="opacity:1" fill="#d72b2b" d="M 514.5,443.5 C 521.983,443.481 525.483,447.148 525,454.5C 518.27,458.052 514.103,456.052 512.5,448.5C 512.437,446.486 513.103,444.819 514.5,443.5 Z"/></g>
<g><path style="opacity:1" fill="#ab0606" d="M 143.5,447.5 C 145.394,448.048 147.06,449.048 148.5,450.5C 149.5,449.833 150.5,449.167 151.5,448.5C 151.833,448.833 152.167,449.167 152.5,449.5C 151.167,450.62 150.667,451.953 151,453.5C 153.833,456.333 156.667,459.167 159.5,462C 161.047,462.333 162.38,461.833 163.5,460.5C 164.583,461.365 164.749,462.365 164,463.5C 162.274,464.576 160.441,464.743 158.5,464C 155.318,460.651 151.985,457.484 148.5,454.5C 144.5,457.167 143.833,456.5 146.5,452.5C 145.048,451.06 144.048,449.394 143.5,447.5 Z"/></g>
<g><path style="opacity:1" fill="#ae0909" d="M 411.5,453.5 C 416.351,452.784 420.518,454.117 424,457.5C 427.433,462.133 427.267,466.633 423.5,471C 421.305,472.373 418.971,472.706 416.5,472C 410.665,469.206 407.831,464.706 408,458.5C 409.176,456.804 410.343,455.138 411.5,453.5 Z"/></g>
<g><path style="opacity:1" fill="#d62a2a" d="M 412.5,455.5 C 418.772,455.435 422.772,458.435 424.5,464.5C 423.182,469.078 420.182,470.578 415.5,469C 410.199,465.364 409.199,460.864 412.5,455.5 Z"/></g>
<g><path style="opacity:1" fill="#ae0909" d="M 137.5,459.5 C 142.351,458.784 146.518,460.117 150,463.5C 153.433,468.133 153.267,472.633 149.5,477C 147.305,478.373 144.971,478.706 142.5,478C 136.665,475.206 133.831,470.706 134,464.5C 135.176,462.804 136.343,461.138 137.5,459.5 Z"/></g>
<g><path style="opacity:1" fill="#d62a2a" d="M 138.5,461.5 C 144.772,461.435 148.772,464.435 150.5,470.5C 149.182,475.078 146.182,476.578 141.5,475C 136.199,471.364 135.199,466.864 138.5,461.5 Z"/></g>
<g><path style="opacity:1" fill="#ac0706" d="M 400.5,463.5 C 404.157,463.974 404.324,465.307 401,467.5C 400.333,468.833 400.333,470.167 401,471.5C 403.797,475.299 406.964,478.799 410.5,482C 410,482.5 409.5,483 409,483.5C 404.5,479 400,474.5 395.5,470C 396.253,468.513 397.086,468.346 398,469.5C 398.573,467.359 399.406,465.359 400.5,463.5 Z"/></g>
<g><path style="opacity:1" fill="#ac0707" d="M 49.5,460.5 C 53.8191,459.799 57.4858,460.966 60.5,464C 57.5,467 54.5,470 51.5,473C 54.0316,475.415 57.0316,476.081 60.5,475C 62.4425,473.028 62.7758,470.861 61.5,468.5C 62.325,467.614 63.325,467.281 64.5,467.5C 65.314,475.183 61.9807,478.683 54.5,478C 48.6646,475.206 45.8313,470.706 46,464.5C 46.6897,462.65 47.8564,461.316 49.5,460.5 Z"/></g>
<g><path style="opacity:1" fill="#d42929" d="M 49.5,462.5 C 51.5273,462.338 53.5273,462.505 55.5,463C 55.9574,463.414 56.2907,463.914 56.5,464.5C 54.517,466.984 52.3504,469.317 50,471.5C 46.8777,468.644 46.7111,465.644 49.5,462.5 Z"/></g>
<g><path style="opacity:1" fill="#ac0706" d="M 127.5,470.5 C 131.157,470.974 131.324,472.307 128,474.5C 127.333,475.833 127.333,477.167 128,478.5C 130.797,482.299 133.964,485.799 137.5,489C 137,489.5 136.5,490 136,490.5C 131.5,486 127,481.5 122.5,477C 123.253,475.513 124.086,475.346 125,476.5C 125.573,474.359 126.406,472.359 127.5,470.5 Z"/></g>
<g><path style="opacity:1" fill="#ab0606" d="M 36.5,472.5 C 38.9892,472.298 41.3225,472.798 43.5,474C 46.6828,477.015 49.6828,480.182 52.5,483.5C 51.9984,484.521 51.3317,484.688 50.5,484C 47.465,480.63 44.1317,477.63 40.5,475C 38.6332,474.289 37.1332,474.789 36,476.5C 35.3333,478.5 35.3333,480.5 36,482.5C 38.4626,485.965 41.2959,489.131 44.5,492C 44,492.5 43.5,493 43,493.5C 36.6519,487.319 30.4852,480.986 24.5,474.5C 25.0016,473.479 25.6683,473.312 26.5,474C 28.6667,476.167 30.8333,478.333 33,480.5C 33.0036,477.208 34.1703,474.542 36.5,472.5 Z"/></g>
<g><path style="opacity:1" fill="#ae0909" d="M 389.5,475.5 C 395.68,475.826 400.18,478.826 403,484.5C 403.78,490.726 400.947,493.893 394.5,494C 396.657,495.085 396.824,496.251 395,497.5C 388.652,491.319 382.485,484.986 376.5,478.5C 377.002,477.479 377.668,477.312 378.5,478C 380.667,480.167 382.833,482.333 385,484.5C 384.645,480.412 386.145,477.412 389.5,475.5 Z"/></g>
<g><path style="opacity:1" fill="#d72b2b" d="M 389.5,478.5 C 396.983,478.481 400.483,482.148 400,489.5C 393.27,493.052 389.103,491.052 387.5,483.5C 387.437,481.486 388.103,479.819 389.5,478.5 Z"/></g>
<g><path style="opacity:1" fill="#ae0909" d="M 567.5,485.5 C 567.5,486.5 567.5,487.5 567.5,488.5C 560.032,485.462 556.865,487.795 558,495.5C 560.285,498.892 563.452,500.559 567.5,500.5C 567.5,501.167 567.5,501.833 567.5,502.5C 562.458,502.985 558.624,500.985 556,496.5C 553.065,489.213 555.565,485.38 563.5,485C 561.343,483.915 561.176,482.749 563,481.5C 564.371,483.041 565.871,484.375 567.5,485.5 Z"/></g>
<g><path style="opacity:1" fill="#ab0606" d="M 19.5,482.5 C 21.3936,483.048 23.0603,484.048 24.5,485.5C 25.5,484.833 26.5,484.167 27.5,483.5C 27.8333,483.833 28.1667,484.167 28.5,484.5C 27.1666,485.62 26.6666,486.953 27,488.5C 29.8333,491.333 32.6667,494.167 35.5,497C 37.0468,497.333 38.3801,496.833 39.5,495.5C 40.5827,496.365 40.7494,497.365 40,498.5C 38.2739,499.576 36.4406,499.743 34.5,499C 31.318,495.651 27.9846,492.484 24.5,489.5C 20.5,492.167 19.8333,491.5 22.5,487.5C 21.0476,486.06 20.0476,484.394 19.5,482.5 Z"/></g>
<g><path style="opacity:1" fill="#d72b2b" d="M 567.5,488.5 C 567.5,492.5 567.5,496.5 567.5,500.5C 563.452,500.559 560.285,498.892 558,495.5C 556.865,487.795 560.032,485.462 567.5,488.5 Z"/></g>
<g><path style="opacity:1" fill="#ae0909" d="M 116.5,482.5 C 122.68,482.826 127.18,485.826 130,491.5C 130.78,497.726 127.947,500.893 121.5,501C 123.657,502.085 123.824,503.251 122,504.5C 115.652,498.319 109.485,491.986 103.5,485.5C 104.002,484.479 104.668,484.312 105.5,485C 107.667,487.167 109.833,489.333 112,491.5C 111.645,487.412 113.145,484.412 116.5,482.5 Z"/></g>
<g><path style="opacity:1" fill="#d72b2b" d="M 116.5,485.5 C 123.983,485.481 127.483,489.148 127,496.5C 120.27,500.052 116.103,498.052 114.5,490.5C 114.437,488.486 115.103,486.819 116.5,485.5 Z"/></g>
<g><path style="opacity:1" fill="#ae0909" d="M 13.5,494.5 C 18.3514,493.784 22.5181,495.117 26,498.5C 29.4333,503.133 29.2667,507.633 25.5,512C 23.3046,513.373 20.9712,513.706 18.5,513C 12.6646,510.206 9.83125,505.706 10,499.5C 11.1764,497.804 12.343,496.138 13.5,494.5 Z"/></g>
<g><path style="opacity:1" fill="#ac0706" d="M 547.5,495.5 C 551.157,495.974 551.324,497.307 548,499.5C 547.333,500.833 547.333,502.167 548,503.5C 550.797,507.299 553.964,510.799 557.5,514C 557,514.5 556.5,515 556,515.5C 551.5,511 547,506.5 542.5,502C 543.253,500.513 544.086,500.346 545,501.5C 545.573,499.359 546.406,497.359 547.5,495.5 Z"/></g>
<g><path style="opacity:1" fill="#d62a2a" d="M 14.5,496.5 C 20.7716,496.435 24.7716,499.435 26.5,505.5C 25.1823,510.078 22.1823,511.578 17.5,510C 12.1994,506.364 11.1994,501.864 14.5,496.5 Z"/></g>
<g><path style="opacity:1" fill="#ac0707" d="M -0.5,513.5 C -0.5,512.5 -0.5,511.5 -0.5,510.5C 0.117425,510.611 0.617425,510.944 1,511.5C 1.44966,509.481 2.283,507.648 3.5,506C 4.63505,505.251 5.63505,505.417 6.5,506.5C 3.97884,508.26 3.14551,510.593 4,513.5C 6.79693,517.299 9.96359,520.799 13.5,524C 13,524.5 12.5,525 12,525.5C 7.96443,521.296 3.79776,517.296 -0.5,513.5 Z"/></g>
<g><path style="opacity:1" fill="#32518c" d="M 197.5,491.5 C 200.202,494.518 202.702,497.851 205,501.5C 209.746,511.503 213.413,521.836 216,532.5C 216.667,535.5 216.667,538.5 216,541.5C 213.838,549.468 212.005,557.468 210.5,565.5C 202.231,564.369 194.565,561.535 187.5,557C 180.76,552.301 174.427,547.135 168.5,541.5C 171.751,532.377 175.918,523.71 181,515.5C 186.595,507.506 192.095,499.506 197.5,491.5 Z"/></g>
<g><path style="opacity:1" fill="#ac0707" d="M 535.5,507.5 C 539.819,506.799 543.486,507.966 546.5,511C 543.5,514 540.5,517 537.5,520C 540.032,522.415 543.032,523.081 546.5,522C 548.442,520.028 548.776,517.861 547.5,515.5C 548.325,514.614 549.325,514.281 550.5,514.5C 551.314,522.183 547.981,525.683 540.5,525C 534.665,522.206 531.831,517.706 532,511.5C 532.69,509.65 533.856,508.316 535.5,507.5 Z"/></g>
<g><path style="opacity:1" fill="#d42929" d="M 535.5,509.5 C 537.527,509.338 539.527,509.505 541.5,510C 541.957,510.414 542.291,510.914 542.5,511.5C 540.517,513.984 538.35,516.317 536,518.5C 532.878,515.644 532.711,512.644 535.5,509.5 Z"/></g>
<g><path style="opacity:1" fill="#ed882e" d="M 233.5,461.5 C 234.116,473.351 233.45,485.018 231.5,496.5C 232.852,497.524 234.185,498.524 235.5,499.5C 236.935,507.198 240.602,513.698 246.5,519C 257.228,529.065 269.062,537.565 282,544.5C 283.893,543.804 285.726,542.97 287.5,542C 298.92,534.08 309.587,525.247 319.5,515.5C 325.201,509.986 328.368,503.319 329,495.5C 329.168,484.818 329.668,474.151 330.5,463.5C 331.548,462.617 332.715,461.95 334,461.5C 341.968,464.17 349.468,467.67 356.5,472C 359.406,473.315 360.573,475.482 360,478.5C 355.443,485.16 351.443,492.16 348,499.5C 337.157,520.928 333.324,543.595 336.5,567.5C 300.167,567.5 263.833,567.5 227.5,567.5C 227.5,556.833 227.5,546.167 227.5,535.5C 227.706,532.505 227.04,529.838 225.5,527.5C 220.318,509.81 212.984,493.143 203.5,477.5C 205.719,474.118 208.719,471.618 212.5,470C 219.176,466.494 226.176,463.66 233.5,461.5 Z"/></g>
<g><path style="opacity:1" fill="#314f8b" d="M 245.5,487.5 C 247.101,489.855 248.768,492.355 250.5,495C 252.246,495.471 253.913,496.138 255.5,497C 263.533,497.504 271.533,498.337 279.5,499.5C 290.183,498.46 300.849,497.294 311.5,496C 314.333,494.5 316.5,492.333 318,489.5C 318.658,493.572 318.325,497.572 317,501.5C 307.496,514.003 295.829,524.003 282,531.5C 270.243,525.093 259.577,517.093 250,507.5C 245.987,501.515 244.487,494.848 245.5,487.5 Z"/></g>
<g><path style="opacity:1" fill="#b26f38" d="M 233.5,461.5 C 234.244,474.018 234.911,486.684 235.5,499.5C 234.185,498.524 232.852,497.524 231.5,496.5C 233.45,485.018 234.116,473.351 233.5,461.5 Z"/></g>
<g><path style="opacity:1" fill="#f7d8b5" d="M 251.5,469.5 C 271.895,477.143 292.395,477.476 313,470.5C 312.58,476.09 310.746,481.257 307.5,486C 297.887,487.341 288.22,488.174 278.5,488.5C 270.993,488.519 263.659,487.519 256.5,485.5C 253.673,480.517 252.006,475.183 251.5,469.5 Z"/></g>
<g><path style="opacity:1" fill="#ab0606" d="M 523.5,520.5 C 525.989,520.298 528.323,520.798 530.5,522C 533.683,525.015 536.683,528.182 539.5,531.5C 538.998,532.521 538.332,532.688 537.5,532C 534.465,528.63 531.132,525.63 527.5,523C 525.633,522.289 524.133,522.789 523,524.5C 522.333,526.5 522.333,528.5 523,530.5C 525.463,533.965 528.296,537.131 531.5,540C 531,540.5 530.5,541 530,541.5C 523.652,535.319 517.485,528.986 511.5,522.5C 512.002,521.479 512.668,521.312 513.5,522C 515.667,524.167 517.833,526.333 520,528.5C 520.004,525.208 521.17,522.542 523.5,520.5 Z"/></g>
<g><path style="opacity:1" fill="#ab0606" d="M 506.5,529.5 C 508.394,530.048 510.06,531.048 511.5,532.5C 512.5,531.833 513.5,531.167 514.5,530.5C 514.833,530.833 515.167,531.167 515.5,531.5C 514.167,532.62 513.667,533.953 514,535.5C 516.833,538.333 519.667,541.167 522.5,544C 524.047,544.333 525.38,543.833 526.5,542.5C 527.583,543.365 527.749,544.365 527,545.5C 525.274,546.576 523.441,546.743 521.5,546C 518.318,542.651 514.985,539.484 511.5,536.5C 507.5,539.167 506.833,538.5 509.5,534.5C 508.048,533.06 507.048,531.394 506.5,529.5 Z"/></g>
<g><path style="opacity:1" fill="#62361d" d="M 225.5,527.5 C 227.04,529.838 227.706,532.505 227.5,535.5C 226.232,533.095 225.565,530.428 225.5,527.5 Z"/></g>
<g><path style="opacity:1" fill="#ac0706" d="M 150.5,536.5 C 154.157,536.974 154.324,538.307 151,540.5C 150.333,541.833 150.333,543.167 151,544.5C 153.797,548.299 156.964,551.799 160.5,555C 160,555.5 159.5,556 159,556.5C 154.5,552 150,547.5 145.5,543C 146.253,541.513 147.086,541.346 148,542.5C 148.573,540.359 149.406,538.359 150.5,536.5 Z"/></g>
<g><path style="opacity:1" fill="#ad0808" d="M 417.5,537.5 C 423.163,542.33 428.33,547.663 433,553.5C 434.302,561.362 431.136,564.695 423.5,563.5C 431.893,561.4 433.393,557.067 428,550.5C 427.39,557.761 423.557,560.261 416.5,558C 413.96,555.795 411.793,553.295 410,550.5C 408.877,543.95 411.711,540.784 418.5,541C 416.627,540.047 416.294,538.88 417.5,537.5 Z"/></g>
<g><path style="opacity:1" fill="#ae0909" d="M 500.5,542.5 C 505.351,541.784 509.518,543.117 513,546.5C 516.433,551.133 516.267,555.633 512.5,560C 510.305,561.373 507.971,561.706 505.5,561C 499.665,558.206 496.831,553.706 497,547.5C 498.176,545.804 499.343,544.138 500.5,542.5 Z"/></g>
<g><path style="opacity:1" fill="#d62b2a" d="M 414.5,543.5 C 424.106,543.254 427.106,547.421 423.5,556C 417.298,556.796 413.632,554.13 412.5,548C 412.759,546.213 413.425,544.713 414.5,543.5 Z"/></g>
<g><path style="opacity:1" fill="#d62a2a" d="M 501.5,544.5 C 507.772,544.435 511.772,547.435 513.5,553.5C 512.182,558.078 509.182,559.578 504.5,558C 499.199,554.364 498.199,549.864 501.5,544.5 Z"/></g>
<g><path style="opacity:1" fill="#31508c" d="M 364.5,490.5 C 365.496,490.414 366.329,490.748 367,491.5C 370.946,497.779 375.279,503.779 380,509.5C 386.187,519.208 391.354,529.541 395.5,540.5C 394.781,542.728 393.448,544.561 391.5,546C 381.12,555.359 369.12,561.859 355.5,565.5C 351.082,553.838 348.582,541.838 348,529.5C 350.179,522.452 352.512,515.452 355,508.5C 358.076,502.425 361.243,496.425 364.5,490.5 Z"/></g>
<g><path style="opacity:1" fill="#aa0808" d="M 403.5,567.5 C 402.5,567.5 401.5,567.5 400.5,567.5C 399.705,563.524 399.038,559.524 398.5,555.5C 400.926,553.782 403.593,553.282 406.5,554C 410.647,556.98 414.314,560.48 417.5,564.5C 416.998,565.521 416.332,565.688 415.5,565C 412.833,562.333 410.167,559.667 407.5,557C 405.105,554.855 402.938,555.022 401,557.5C 400.024,561.327 400.857,564.66 403.5,567.5 Z"/></g>
<g><path style="opacity:1" fill="#1c1515" d="M 308.5,529.5 C 326.661,529.842 333.828,538.842 330,556.5C 323.574,566.628 314.741,569.295 303.5,564.5C 290.194,550.606 291.861,538.939 308.5,529.5 Z"/></g>
<g><path style="opacity:1" fill="#f3f3f2" d="M 323.5,537.5 C 329.967,544.213 330.134,551.213 324,558.5C 323.5,551.508 323.334,544.508 323.5,537.5 Z"/></g>
<g><path style="opacity:1" fill="#ebeced" d="M 308.5,533.5 C 312.548,533.395 316.548,533.728 320.5,534.5C 320.5,542.167 320.5,549.833 320.5,557.5C 314.442,556.802 314.775,557.969 321.5,561C 312.706,565.505 305.54,563.672 300,555.5C 296.457,545.6 299.29,538.267 308.5,533.5 Z"/></g>
<g><path style="opacity:1" fill="#1a1a1b" d="M 306.5,539.5 C 308.833,539.5 311.167,539.5 313.5,539.5C 313.666,545.842 313.5,552.175 313,558.5C 310.572,557.37 308.405,555.87 306.5,554C 308.107,554.019 309.774,554.185 311.5,554.5C 311.321,552.394 310.321,550.728 308.5,549.5C 306.11,551.267 304.443,553.6 303.5,556.5C 302.338,551.533 302.171,546.533 303,541.5C 304.302,540.915 305.469,540.249 306.5,539.5 Z"/></g>
<g><path style="opacity:1" fill="#bfbfc1" d="M 304.5,545.5 C 306.942,547.139 307.109,549.139 305,551.5C 304.505,549.527 304.338,547.527 304.5,545.5 Z"/></g>
<g><path style="opacity:1" fill="#383839" d="M 315.5,542.5 C 316.5,542.5 317.5,542.5 318.5,542.5C 318.664,545.187 318.497,547.854 318,550.5C 317.586,550.957 317.086,551.291 316.5,551.5C 315.516,548.572 315.183,545.572 315.5,542.5 Z"/></g>
<g><path style="opacity:1" fill="#bcbcbe" d="M 309.5,544.5 C 311.344,545.204 311.844,546.537 311,548.5C 309.812,547.437 309.312,546.103 309.5,544.5 Z"/></g>
<g><path style="opacity:1" fill="#cacbcc" d="M 306.5,541.5 C 307.873,541.343 309.207,541.51 310.5,542C 309,542.833 307.833,544 307,545.5C 305.232,544.318 305.065,542.985 306.5,541.5 Z"/></g>
<g><path style="opacity:1" fill="#ac0707" d="M 148.5,567.5 C 146.833,567.5 145.167,567.5 143.5,567.5C 140.196,565.027 137.362,562.027 135,558.5C 134.294,556.029 134.627,553.695 136,551.5C 140.894,548.533 145.394,549.033 149.5,553C 146.5,556 143.5,559 140.5,562C 141.167,562.667 141.833,563.333 142.5,564C 147.033,565.628 150.033,564.295 151.5,560C 149.847,557.589 150.513,556.422 153.5,556.5C 153.924,561.27 152.257,564.937 148.5,567.5 Z"/></g>
<g><path style="opacity:1" fill="#d42929" d="M 138.5,551.5 C 140.527,551.338 142.527,551.505 144.5,552C 144.957,552.414 145.291,552.914 145.5,553.5C 143.517,555.984 141.35,558.317 139,560.5C 135.878,557.644 135.711,554.644 138.5,551.5 Z"/></g>
<g><path style="opacity:1" fill="#efd2b6" d="M 184.5,567.5 C 180.5,567.5 176.5,567.5 172.5,567.5C 173.176,565.141 174.009,562.808 175,560.5C 178.145,562.976 181.312,565.31 184.5,567.5 Z"/></g>
<g><path style="opacity:1" fill="#efd6b6" d="M 389.5,567.5 C 386.167,567.5 382.833,567.5 379.5,567.5C 382.102,565.858 384.769,564.192 387.5,562.5C 389.217,563.668 389.884,565.335 389.5,567.5 Z"/></g>
</svg>
